<svg width="512" height="512" viewBox="0 0 512 512" fill="none" xmlns="http://www.w3.org/2000/svg">
<g clip-path="url(#clip0_7_1002)">
<path d="M292.168 287.24C313.59 287.24 315.615 408.961 379.519 408.961C408.501 408.961 439.539 377.739 439.539 301.9C439.539 205.457 498.472 203.152 498.472 106.511C498.473 47.687 445.566 0 380.301 0C351.84 0 325.732 9.072 305.336 24.18C297.546 29.95 286.792 29.95 279.001 24.18C258.604 9.072 232.497 0 204.036 0C138.771 0 85.8638 47.687 85.8638 106.511C85.8638 203.152 144.797 205.457 144.797 301.9C144.797 377.739 175.835 408.961 204.817 408.961C268.721 408.961 270.746 287.24 292.168 287.24Z" fill="white"/>
<path d="M189.664 0.785156C131.179 7.17716 85.8638 52.0712 85.8638 106.51C85.8638 203.151 144.797 205.456 144.797 301.899C144.797 377.737 175.835 408.96 204.817 408.96C252.47 408.96 265.714 341.286 278.251 306.861C194.006 274.663 97.1858 90.0882 189.664 0.785156Z" fill="#F6F6F6"/>
<path d="M227.109 149.641C227.117 166.373 210.091 179.946 189.08 179.956C168.069 179.967 151.029 166.411 151.021 149.679C151.013 132.947 168.039 119.374 189.05 119.363C210.061 119.353 227.1 132.909 227.109 149.641Z" fill="#EDA1AB"/>
<path d="M357.232 149.577C357.241 166.309 374.28 179.864 395.291 179.854C416.302 179.844 433.328 166.271 433.32 149.539C433.312 132.807 416.272 119.251 395.261 119.262C374.249 119.272 357.223 132.845 357.232 149.577Z" fill="#EDA1AB"/>
<path d="M329.455 135.893C329.443 112.846 312.746 110.689 292.15 110.699C271.554 110.709 254.859 112.883 254.871 135.93C254.883 158.976 271.588 177.651 292.184 177.641C312.78 177.631 329.467 158.94 329.455 135.893Z" fill="#4E5660"/>
<path d="M193.112 124.191C188.971 124.191 185.614 120.836 185.612 116.695C185.609 109.854 188.269 103.423 193.103 98.5842C197.938 93.7442 204.367 91.0772 211.208 91.0742H211.221C225.336 91.0742 236.821 102.553 236.829 116.67C236.832 120.812 233.475 124.172 229.333 124.174C229.332 124.174 229.33 124.174 229.329 124.174C225.188 124.174 221.832 120.819 221.829 116.678C221.826 110.83 217.067 106.074 211.221 106.074C211.22 106.074 211.218 106.074 211.216 106.074C205.366 106.077 200.61 110.838 200.613 116.687C200.615 120.83 197.259 124.189 193.116 124.191C193.115 124.191 193.113 124.191 193.112 124.191Z" fill="#4E5660"/>
<path d="M354.979 124.109C350.838 124.109 347.481 120.754 347.479 116.613C347.472 102.492 358.954 90.9992 373.074 90.9922H373.087C387.203 90.9922 398.689 102.471 398.695 116.587C398.697 120.73 395.341 124.089 391.199 124.091C391.198 124.091 391.196 124.091 391.195 124.091C387.054 124.091 383.697 120.736 383.695 116.595C383.694 113.761 382.589 111.098 380.584 109.096C378.581 107.094 375.919 105.992 373.086 105.992C373.085 105.992 373.083 105.992 373.081 105.992C367.232 105.995 362.476 110.756 362.479 116.605C362.481 120.748 359.125 124.107 354.982 124.109C354.981 124.109 354.98 124.109 354.979 124.109Z" fill="#4E5660"/>
<path d="M27.64 497.887C46.919 517.199 79.629 517.219 98.666 494.681L197.991 375.475C209.358 361.833 208.235 341.93 195.899 329.628C183.597 317.292 163.694 316.169 150.052 327.536L30.847 426.86C8.309 445.898 8.32899 478.608 27.64 497.887Z" fill="#6A95D6"/>
<path d="M115.8 474.117L197.992 375.474C209.359 361.832 208.236 341.929 195.9 329.627C183.598 317.291 163.695 316.169 150.053 327.535L51.4102 409.727L115.8 474.117Z" fill="#81DCD9"/>
<path d="M195.9 329.627C183.598 317.291 163.695 316.169 150.053 327.535L84.9521 381.779C97.6831 407.155 118.374 427.843 143.752 440.571L197.992 375.475C209.359 361.832 208.236 341.929 195.9 329.627Z" fill="#6DC8DD"/>
<path d="M202.688 433.656C263.898 433.656 313.518 384.036 313.518 322.826C313.518 261.616 263.898 211.996 202.688 211.996C141.478 211.996 91.8579 261.616 91.8579 322.826C91.8579 384.036 141.478 433.656 202.688 433.656Z" fill="#8DAEE1"/>
<path d="M230.766 374.722L179.196 265.34C157.764 259.742 154.67 229.972 162.162 219.641C120.997 235.821 91.8569 275.92 91.8569 322.827C91.8569 384.037 141.477 433.657 202.687 433.657C221.799 433.657 239.78 428.819 255.475 420.302C233.326 414.075 224.865 382.277 230.766 374.722Z" fill="#6A95D6"/>
<path d="M202.688 386.681C237.955 386.681 266.544 358.091 266.544 322.825C266.544 287.558 237.955 258.969 202.688 258.969C167.421 258.969 138.832 287.558 138.832 322.825C138.832 358.091 167.421 386.681 202.688 386.681Z" fill="#B9E6FF"/>
<path d="M232.06 266.133L145.994 352.199C153.389 366.444 165.983 377.548 181.273 382.991L262.852 301.412C257.408 286.122 246.304 273.528 232.06 266.133Z" fill="#8BD5FD"/>
</g>
<defs>
<clipPath id="clip0_7_1002">
<rect width="512" height="512" fill="white"/>
</clipPath>
</defs>
</svg>
