<svg id="Capa_1" enable-background="new 0 0 512 512" height="512" viewBox="0 0 512 512" width="512" xmlns="http://www.w3.org/2000/svg"><g><path d="m394.377 512h-235.783c-29.426 0-53.28-23.854-53.28-53.28v-316.428c0-29.426 23.854-53.28 53.28-53.28h235.782c29.426 0 53.28 23.854 53.28 53.28v316.428c.001 29.426-23.854 53.28-53.279 53.28z" fill="#8daee1"/><path d="m158.594 89.012c-29.426 0-53.28 23.854-53.28 53.28v316.428c0 29.426 23.854 53.28 53.28 53.28h147.709c-88.3-61.141-96.42-327.337-91.378-422.988z" fill="#6a95d6"/><path d="m381.081 470.934h-209.191c-14.089 0-25.509-11.421-25.509-25.509v-289.837c0-14.088 11.421-25.509 25.509-25.509h209.192c14.088 0 25.509 11.421 25.509 25.509v289.836c0 14.089-11.421 25.51-25.51 25.51z" fill="#b9e6ff"/><path d="m213.796 130.079h-41.906c-14.088 0-25.509 11.421-25.509 25.509v289.836c0 14.088 11.421 25.509 25.509 25.509h99.306c-47.537-83.687-58.075-245.48-57.4-340.854z" fill="#8bd5fd"/><path d="m331.382 44.223h-21.159c6.091-22.279-10.69-44.223-33.737-44.223-23.104 0-39.816 21.987-33.738 44.223h-21.159c-14.035 0-25.413 11.378-25.413 25.413v38.751c0 14.035 11.378 25.413 25.413 25.413h109.793c14.036 0 25.414-11.378 25.414-25.413v-38.75c-.001-14.036-11.378-25.414-25.414-25.414z" fill="#81dcd9"/><path d="m258.065 5.238c-12.578 7.826-19.594 23.338-15.317 38.985h-21.159c-14.036 0-25.413 11.378-25.413 25.413v38.751c0 14.035 11.378 25.413 25.413 25.413h73.925c-35.698-24.501-48.579-87.318-37.449-128.562z" fill="#6dc8dd"/><g><path d="m236.671 301.137h-41.777c-4.143 0-7.5-3.358-7.5-7.5s3.357-7.5 7.5-7.5h41.777c4.143 0 7.5 3.358 7.5 7.5s-3.357 7.5-7.5 7.5z" fill="#4e5660"/><path d="m358.077 301.137h-83.833c-4.143 0-7.5-3.358-7.5-7.5s3.357-7.5 7.5-7.5h83.833c4.143 0 7.5 3.358 7.5 7.5s-3.357 7.5-7.5 7.5z" fill="#3a4351"/><path d="m289.102 344.49h-94.208c-4.143 0-7.5-3.358-7.5-7.5s3.357-7.5 7.5-7.5h94.208c4.143 0 7.5 3.358 7.5 7.5s-3.358 7.5-7.5 7.5z" fill="#3a4351"/><path d="m358.077 344.49h-31.402c-4.143 0-7.5-3.358-7.5-7.5s3.357-7.5 7.5-7.5h31.402c4.143 0 7.5 3.358 7.5 7.5s-3.357 7.5-7.5 7.5z" fill="#4e5660"/><path d="m238.913 387.844h-44.02c-4.143 0-7.5-3.358-7.5-7.5s3.357-7.5 7.5-7.5h44.02c4.143 0 7.5 3.358 7.5 7.5s-3.357 7.5-7.5 7.5z" fill="#4e5660"/><path d="m332.241 387.844h-55.756c-4.143 0-7.5-3.358-7.5-7.5s3.357-7.5 7.5-7.5h55.756c4.143 0 7.5 3.358 7.5 7.5s-3.357 7.5-7.5 7.5z" fill="#3a4351"/></g><g><path d="m151.872 197.38c9.089 0 9.948 51.643 37.061 51.643 12.296 0 25.465-13.247 25.465-45.423 0-40.918 25.004-41.896 25.004-82.898 0-24.957-22.447-45.189-50.137-45.189-12.075 0-23.152 3.849-31.806 10.259-3.305 2.448-7.868 2.448-11.173 0-8.654-6.41-19.73-10.259-31.806-10.259-27.69 0-50.137 20.232-50.137 45.189 0 41.002 25.004 41.98 25.004 82.898 0 32.176 13.169 45.423 25.465 45.423 27.112-.001 27.971-51.643 37.06-51.643z" fill="#fbf1cf"/><path d="m108.383 75.846c-24.814 2.712-44.04 21.759-44.04 44.856 0 41.002 25.004 41.98 25.004 82.898 0 32.176 13.169 45.423 25.465 45.423 20.218 0 25.837-28.712 31.156-43.318-35.743-13.661-76.821-91.97-37.585-129.859z" fill="#f9dfbc"/></g><path d="m267.847 194.101h76.828c7.402 0 13.402 6 13.402 13.402v14.186c0 7.402-6 13.402-13.402 13.402h-76.828c-7.402 0-13.402-6-13.402-13.402v-14.186c0-7.402 6-13.402 13.402-13.402z" fill="#fff"/><path d="m290.46 87.133h-27.948c-4.143 0-7.5-3.358-7.5-7.5s3.357-7.5 7.5-7.5h27.948c4.143 0 7.5 3.358 7.5 7.5s-3.357 7.5-7.5 7.5z" fill="#6dc8dd"/></g></svg>