<svg width="512" height="512" viewBox="0 0 512 512" fill="none" xmlns="http://www.w3.org/2000/svg">
<g clip-path="url(#clip0_7_217)">
<path d="M274.725 321.603H46.878C20.988 321.603 0 300.615 0 274.725V46.878C0 20.988 20.988 0 46.878 0H274.725C300.615 0 321.603 20.988 321.603 46.878V274.725C321.603 300.615 300.615 321.603 274.725 321.603Z" fill="#81DCD9"/>
<path d="M46.878 0C20.988 0 0 20.988 0 46.878V274.725C0 300.615 20.988 321.603 46.878 321.603H134.548C127.7 309.967 125.421 288.402 136.363 275.04L105.479 45.532C96.159 39.758 89.607 16.953 96.691 0L46.878 0Z" fill="#6DC8DD"/>
<path d="M267.153 281.025H54.4501C46.7891 281.025 40.5781 274.814 40.5781 267.153V54.4501C40.5781 46.7891 46.7891 40.5781 54.4501 40.5781H267.152C274.813 40.5781 281.024 46.7891 281.024 54.4501V267.152C281.025 274.814 274.814 281.025 267.153 281.025Z" fill="white"/>
<path d="M93.5781 40.5781H54.4501C46.7891 40.5781 40.5781 46.7891 40.5781 54.4501V267.152C40.5781 274.813 46.7891 281.024 54.4501 281.024H142.723C95.4781 232.583 89.0751 107.942 93.5781 40.5781Z" fill="#F6F6F6"/>
<path d="M147.326 174.278L106.857 133.809C99.4129 126.366 99.4129 114.299 106.857 106.856C114.3 99.4127 126.366 99.4127 133.809 106.856L174.278 147.325C181.722 154.768 181.722 166.835 174.278 174.278C166.835 181.72 154.769 181.721 147.326 174.278Z" fill="#4E5660"/>
<path d="M147.326 174.278C139.882 166.835 139.882 154.768 147.326 147.325L171.251 123.399C178.694 115.956 190.76 115.956 198.203 123.399C205.647 130.842 205.647 142.909 198.203 150.352L174.277 174.278C166.835 181.72 154.769 181.721 147.326 174.278Z" fill="#8DAEE1"/>
<path d="M160.802 85.0578C156.659 85.0578 153.302 81.6998 153.302 77.5578V72.7148C153.302 68.5728 156.659 65.2148 160.802 65.2148C164.945 65.2148 168.302 68.5728 168.302 72.7148V77.5578C168.302 81.6998 164.944 85.0578 160.802 85.0578Z" fill="#4E5660"/>
<path d="M77.5569 168.305H72.7129C68.5699 168.305 65.2129 164.947 65.2129 160.805C65.2129 156.663 68.5699 153.305 72.7129 153.305H77.5569C81.6999 153.305 85.0569 156.663 85.0569 160.805C85.0569 164.947 81.6989 168.305 77.5569 168.305Z" fill="#4E5660"/>
<path d="M160.802 256.391C156.659 256.391 153.302 253.033 153.302 248.891V244.047C153.302 239.905 156.659 236.547 160.802 236.547C164.945 236.547 168.302 239.905 168.302 244.047V248.891C168.302 253.033 164.944 256.391 160.802 256.391Z" fill="#4E5660"/>
<path d="M248.89 168.305H244.047C239.904 168.305 236.547 164.947 236.547 160.805C236.547 156.663 239.904 153.305 244.047 153.305H248.89C253.033 153.305 256.39 156.663 256.39 160.805C256.39 164.947 253.032 168.305 248.89 168.305Z" fill="#4E5660"/>
<path d="M352.993 418.187C369.504 418.187 371.064 512.002 420.318 512.002C442.655 512.002 466.578 487.938 466.578 429.486C466.578 355.154 512 353.377 512 278.893C512 233.555 471.222 196.801 420.921 196.801C398.985 196.801 378.863 203.793 363.142 215.437C357.138 219.884 348.849 219.884 342.845 215.437C327.124 203.793 307.002 196.801 285.066 196.801C234.764 196.801 193.987 233.555 193.987 278.893C193.987 353.378 239.409 355.154 239.409 429.486C239.409 487.938 263.331 512.002 285.669 512.002C334.922 512.002 336.483 418.187 352.993 418.187Z" fill="white"/>
<path d="M273.99 197.406C228.913 202.332 193.987 236.934 193.987 278.892C193.987 353.377 239.409 355.153 239.409 429.485C239.409 487.936 263.331 512.001 285.669 512.001C322.397 512.001 332.604 459.842 342.267 433.309C277.336 408.494 202.714 266.235 273.99 197.406Z" fill="#F6F6F6"/>
<path d="M273.056 351.611C289.346 351.611 302.551 341.094 302.551 328.122C302.551 315.149 289.346 304.633 273.056 304.633C256.766 304.633 243.561 315.149 243.561 328.122C243.561 341.094 256.766 351.611 273.056 351.611Z" fill="#EDA1AB"/>
<path d="M432.931 351.611C449.221 351.611 462.426 341.094 462.426 328.122C462.426 315.149 449.221 304.633 432.931 304.633C416.641 304.633 403.436 315.149 403.436 328.122C403.436 341.094 416.641 351.611 432.931 351.611Z" fill="#EDA1AB"/>
<path d="M290.246 312.721C286.103 312.721 282.746 309.363 282.746 305.221V293.742C282.746 289.6 286.103 286.242 290.246 286.242C294.389 286.242 297.746 289.6 297.746 293.742V305.221C297.746 309.363 294.389 312.721 290.246 312.721Z" fill="#4E5660"/>
<path d="M352.993 320.188C344.485 320.188 336.394 316.504 330.796 310.079C328.074 306.957 328.4 302.219 331.523 299.498C334.645 296.777 339.383 297.102 342.105 300.225C344.854 303.379 348.823 305.189 352.994 305.189C357.165 305.189 361.134 303.38 363.883 300.225C366.603 297.102 371.34 296.777 374.465 299.498C377.587 302.22 377.913 306.957 375.192 310.079C369.592 316.504 361.501 320.188 352.993 320.188Z" fill="#4E5660"/>
<path d="M431.26 312.401C427.117 312.401 423.76 309.043 423.76 304.901C423.76 301.701 421.157 299.098 417.957 299.098C414.758 299.098 412.154 301.701 412.154 304.901C412.154 309.043 408.797 312.401 404.654 312.401C400.511 312.401 397.154 309.043 397.154 304.901C397.154 293.43 406.486 284.098 417.957 284.098C429.428 284.098 438.76 293.43 438.76 304.901C438.76 309.043 435.402 312.401 431.26 312.401Z" fill="#4E5660"/>
</g>
<defs>
<clipPath id="clip0_7_217">
<rect width="512" height="512" fill="white"/>
</clipPath>
</defs>
</svg>
