<svg width="512" height="512" viewBox="0 0 512 512" fill="none" xmlns="http://www.w3.org/2000/svg">
<path d="M347.596 138.654C345.677 138.654 343.757 137.922 342.293 136.458L256 50.1646L169.707 136.458C166.778 139.386 162.029 139.386 159.101 136.458C156.172 133.528 156.172 128.78 159.101 125.851L250.697 34.2546C253.626 31.3266 258.375 31.3266 261.303 34.2546L352.899 125.851C355.828 128.781 355.828 133.529 352.899 136.458C351.435 137.922 349.516 138.654 347.596 138.654Z" fill="#4E5660"/>
<path d="M75.148 501.461C33.711 501.461 0 467.749 0 426.313V193.789C0 152.353 33.711 118.641 75.148 118.641H436.852C478.289 118.641 512 152.352 512 193.789V426.313C512 467.749 478.289 501.461 436.852 501.461H75.148Z" fill="#8DAEE1"/>
<path d="M75.148 118.641C33.711 118.641 0 152.353 0 193.789V426.313C0 467.749 33.711 501.461 75.148 501.461H215.166C205.013 492.761 205.157 465.264 213.05 458.988L159.115 160.475C150.681 156.641 140.611 137.081 152.042 118.641H75.148Z" fill="#6A95D6"/>
<path d="M436.852 464.198H75.1477C54.2237 464.198 37.2617 447.236 37.2617 426.312V193.788C37.2617 172.864 54.2237 155.902 75.1477 155.902H436.852C457.776 155.902 474.738 172.864 474.738 193.788V426.312C474.738 447.236 457.776 464.198 436.852 464.198Z" fill="white"/>
<path d="M436.852 155.902H268.865V464.198H436.852C457.776 464.198 474.738 447.236 474.738 426.312V193.788C474.738 172.864 457.776 155.902 436.852 155.902Z" fill="#B9E6FF"/>
<path d="M37.2617 193.788V426.312C37.2617 447.236 54.2237 464.198 75.1477 464.198H209.41C140.923 403.556 119.106 235.327 119.035 155.902H75.1477C54.2237 155.902 37.2617 172.864 37.2617 193.788Z" fill="#F6F6F6"/>
<path d="M409.087 291.367H334.518V409.661C334.518 416.021 341.834 419.598 346.853 415.691L367.109 399.925C369.869 397.777 373.736 397.777 376.496 399.925L396.752 415.691C401.771 419.597 409.087 416.021 409.087 409.661V291.367Z" fill="#EDA1AB"/>
<path d="M334.518 351.492C337.893 352.855 341.421 353.528 344.944 353.528C356.717 353.528 365.717 347.024 371.803 336.866C377.988 347.163 387.005 353.528 398.662 353.528C402.185 353.528 405.713 352.855 409.088 351.492V291.367H334.519V351.492H334.518Z" fill="#E58996"/>
<path d="M371.802 301.18C378.389 301.18 379.011 338.607 398.661 338.607C407.572 338.607 417.116 329.007 417.116 305.688C417.116 276.034 435.237 275.325 435.237 245.609C435.237 227.522 418.969 212.859 398.901 212.859C390.15 212.859 382.122 215.648 375.85 220.294C373.455 222.068 370.148 222.068 367.753 220.294C361.481 215.649 353.454 212.859 344.703 212.859C324.635 212.859 308.367 227.522 308.367 245.609C308.367 275.324 326.488 276.033 326.488 305.688C326.488 329.007 336.032 338.607 344.943 338.607C364.592 338.607 365.215 301.18 371.802 301.18Z" fill="white"/>
<path d="M339.306 213.223C321.798 215.573 308.367 229.177 308.367 245.612C308.367 275.327 326.488 276.036 326.488 305.69C326.488 329.009 336.032 338.609 344.943 338.609C357.162 338.609 362.023 324.137 365.536 313.191C338.972 286.335 335.036 244.835 339.306 213.223Z" fill="#F6F6F6"/>
<path d="M215.054 261.836H94.7955C88.0625 261.836 82.6035 256.378 82.6035 249.644V225.122C82.6035 218.389 88.0615 212.93 94.7955 212.93H215.054C221.787 212.93 227.246 218.388 227.246 225.122V249.644C227.246 256.377 221.787 261.836 215.054 261.836Z" fill="#81DCD9"/>
<path d="M94.7955 212.93C88.0625 212.93 82.6035 218.388 82.6035 225.122V249.644C82.6035 256.377 88.0615 261.835 94.7955 261.835H127.911C125.305 244.898 123.331 228.401 121.914 212.93H94.7955Z" fill="#6DC8DD"/>
<path d="M213.049 329.949H96.8008C92.6588 329.949 89.3008 326.592 89.3008 322.449C89.3008 318.306 92.6588 314.949 96.8008 314.949H213.049C217.191 314.949 220.549 318.306 220.549 322.449C220.549 326.592 217.191 329.949 213.049 329.949Z" fill="#4E5660"/>
<path d="M174.866 415.955C165.902 415.956 156.545 413.282 147.181 406.56C137.319 399.479 118.339 389.971 102.033 405.842C99.0648 408.732 94.3168 408.667 91.4268 405.697C88.5378 402.729 88.6028 397.98 91.5708 395.092C108.944 378.186 133.003 377.916 155.929 394.374C161.543 398.405 178.627 410.671 208.238 385.897C211.413 383.24 216.144 383.659 218.802 386.837C221.46 390.015 221.039 394.744 217.861 397.402C206.478 406.927 191.338 415.955 174.866 415.955Z" fill="#4E5660"/>
<path d="M260.612 68.2407C276.429 65.6767 287.172 50.7762 284.608 34.9595C282.044 19.1427 267.143 8.39914 251.327 10.9631C235.511 13.527 224.768 28.4275 227.332 44.2443C229.896 60.061 244.796 70.8046 260.612 68.2407Z" fill="#6A95D6"/>
</svg>
