<?xml version="1.0" encoding="utf-8"?>
<!-- Generator: Adobe Illustrator 26.5.0, SVG Export Plug-In . SVG Version: 6.00 Build 0)  -->
<svg version="1.1" id="Шар_1" xmlns="http://www.w3.org/2000/svg" xmlns:xlink="http://www.w3.org/1999/xlink" x="0px" y="0px"
	 viewBox="0 0 1042.9 936.8" style="enable-background:new 0 0 1042.9 936.8;" xml:space="preserve">
<style type="text/css">
	.st0{fill:#EBECEA;}
	.st1{display:none;fill:#EBECEA;}
	.st2{display:none;}
	.st3{display:inline;}
	.st4{fill:none;stroke:#F5F3EE;stroke-width:4;stroke-miterlimit:100;}
</style>
<image style="display:none;overflow:visible;" width="1920" height="1080" xlink:href="A5E97CF9.jpg"  transform="matrix(1 0 0 1 -868.2947 -63.2842)">
</image>
<circle class="st0" cx="82.9" cy="338.7" r="50.8"/>
<circle class="st1" cx="799.8" cy="210.8" r="49.4"/>
<g id="Еліпс_2" class="st2">
	<g class="st3">
		<circle class="st0" cx="203.3" cy="754.1" r="49"/>
	</g>
</g>
<g class="st2">
	<g class="st3">
		<defs>
			<rect id="SVGID_1_" x="13.8" y="81.2" width="983.8" height="675.7"/>
		</defs>
		<use xlink:href="#SVGID_1_"  style="overflow:visible;fill:#EBECEA;"/>
		<clipPath id="SVGID_00000128449349399090525790000016975690231003173543_">
			<use xlink:href="#SVGID_1_"  style="overflow:visible;"/>
		</clipPath>
		<g style="clip-path:url(#SVGID_00000128449349399090525790000016975690231003173543_);">
			
				<image style="overflow:visible;" width="1376" height="945" xlink:href="A5E97CFF.png"  transform="matrix(0.715 0 0 0.715 13.7625 81.2316)">
			</image>
		</g>
	</g>
</g>
<image style="overflow:visible;" width="1376" height="945" xlink:href="1038-team-03/img/girl-with-teeth.png"  transform="matrix(0.7163 0 0 0.7163 12.1263 78.0158)">
</image>
<image style="overflow:visible;" width="1920" height="1080" xlink:href="../зірка.png"  transform="matrix(5.023936e-02 0 0 5.331384e-02 763.6755 625.2842)">
</image>
<g id="Еліпс_1">
	<g>
		
			<ellipse transform="matrix(0.3827 -0.9239 0.9239 0.3827 -571.7353 655.1315)" class="st0" cx="204.4" cy="755.4" rx="48.8" ry="48.8"/>
	</g>
</g>
<image style="overflow:visible;" width="378" height="384" id="Шар_11_xA0_Зображення" xlink:href="A5E97CF9.png"  transform="matrix(0.1554 0 0 0.1554 175.0025 724.6461)">
</image>
<g id="Еліпс_1_00000036224147355335618680000003791409843097101206_">
	<g>
		<circle class="st4" cx="82.8" cy="338.6" r="51.4"/>
	</g>
</g>
<image style="overflow:visible;" width="378" height="325" id="Зображення_xA0_9_xA0_Зображення" xlink:href="A5E97D07.png"  transform="matrix(0.1663 0 0 0.1663 51.3689 311.7065)">
</image>
<g id="Еліпс_1_00000110438924533841545780000006539834906189253771_">
	<g>
		<circle class="st0" cx="799.1" cy="211.6" r="49.8"/>
	</g>
</g>
<image style="overflow:visible;" width="377" height="368" id="Зображення_xA0_10_xA0_Зображення" xlink:href="A5E97D08.png"  transform="matrix(0.1585 0 0 0.1585 769.1329 181.6326)">
</image>
</svg>
