<svg id="Capa_1" enable-background="new 0 0 497 497" height="512" viewBox="0 0 497 497" width="512" xmlns="http://www.w3.org/2000/svg"><g><g><path d="m248.5 0c-98.583 0-178.5 79.917-178.5 178.5 0 27.912 6.406 54.327 17.828 77.855l97.663 201.176c11.342 23.363 35.295 39.469 63.009 39.469 20.507 0 38.954-8.818 51.756-22.869 4.5-4.939 8.303-10.524 11.252-16.6l97.663-201.176c11.423-23.528 17.829-49.943 17.829-77.855 0-80.587-53.403-148.7-126.75-170.883-16.38-4.954-33.754-7.617-51.75-7.617zm0 253.5c-41.421 0-75-33.579-75-75s33.579-75 75-75 75 33.579 75 75-33.579 75-75 75z" fill="#ff8e9e"/><path d="m191.329 256.355c-11.423-23.528-17.829-49.943-17.829-77.855 0-80.585 53.405-148.699 126.75-170.883-16.381-4.955-33.752-7.617-51.75-7.617-98.583 0-178.5 79.917-178.5 178.5 0 27.912 6.406 54.327 17.829 77.855l97.663 201.176c11.341 23.363 35.294 39.469 63.008 39.469 20.507 0 38.954-8.818 51.756-22.868-4.5-4.938-8.315-10.524-11.265-16.6z" fill="#ea5b70"/></g><g><g><g><g><ellipse cx="168.943" cy="314.36" fill="#ff8e9e" rx="29.355" ry="23.377"/></g></g><g><g><ellipse cx="328.057" cy="314.36" fill="#ffb5c0" rx="29.355" ry="23.377"/></g></g></g><g fill="#313d40"><path d="m186.051 272.356c-4.143 0-7.5 3.357-7.5 7.5v12c0 4.143 3.357 7.5 7.5 7.5s7.5-3.357 7.5-7.5v-12c0-4.142-3.358-7.5-7.5-7.5z"/><path d="m310.948 272.356c-4.143 0-7.5 3.357-7.5 7.5v12c0 4.143 3.357 7.5 7.5 7.5s7.5-3.357 7.5-7.5v-12c0-4.142-3.357-7.5-7.5-7.5z"/><path d="m269.891 285.845c-3.122-2.722-7.861-2.396-10.581.728-2.729 3.132-6.669 4.928-10.81 4.928s-8.08-1.796-10.81-4.928c-2.721-3.124-7.459-3.448-10.581-.728-3.123 2.721-3.449 7.459-.728 10.581 5.578 6.402 13.641 10.074 22.118 10.074s16.54-3.672 22.118-10.074c2.723-3.122 2.397-7.861-.726-10.581z"/></g></g></g></svg>