<svg width="1881" height="346" viewBox="0 0 1881 346" fill="none" xmlns="http://www.w3.org/2000/svg">
<path d="M510.2 168.8C504.2 168.8 498.734 168.067 493.8 166.6C489 165.133 484.734 163.267 481 161C477.4 158.733 474.334 156.4 471.8 154C469.267 151.6 467.4 149.4 466.2 147.4C464.467 145 463.334 142.867 462.8 141C462.267 139.133 462.4 137.333 463.2 135.6C464.134 133.733 465.8 131.8 468.2 129.8C470.6 127.667 472.8 126.6 474.8 126.6C476.934 126.467 478.934 127.067 480.8 128.4C482.8 129.733 484.734 131.6 486.6 134C489.8 138.267 493.4 141.333 497.4 143.2C501.4 144.933 505.4 145.8 509.4 145.8C514.6 145.8 519.134 145.133 523 143.8C526.867 142.333 529.867 140.2 532 137.4C534.267 134.6 535.4 131 535.4 126.6C535.4 123 534.267 120.067 532 117.8C529.867 115.4 527 113.4 523.4 111.8C519.8 110.067 515.734 108.533 511.2 107.2C506.8 105.733 502.334 104.133 497.8 102.4C494.6 101.333 491.4 100.067 488.2 98.6C485 97 482 95.2 479.2 93.2C476.534 91.2 474.134 88.8667 472 86.2C470 83.4 468.4 80.2 467.2 76.6C466 73 465.4 68.8 465.4 64C465.4 56.4 467.267 49.7333 471 44C474.734 38.1333 479.934 33.5333 486.6 30.2C493.267 26.7333 500.867 25 509.4 25C514.867 25 519.734 25.5333 524 26.6C528.4 27.5333 532.134 28.8 535.2 30.4C538.4 31.8667 541 33.4 543 35C545.134 36.4667 546.667 37.7333 547.6 38.8C550.667 41.8667 552.334 44.4667 552.6 46.6C553 48.6 551.8 51.3333 549 54.8C546.2 58.4 543.467 60.4 540.8 60.8C538.267 61.0667 535.4 60 532.2 57.6C530.067 55.3333 527.934 53.5333 525.8 52.2C523.667 50.7333 521.267 49.6667 518.6 49C516.067 48.3333 512.934 48 509.2 48C506.534 48 503.934 48.4 501.4 49.2C499 49.8667 496.934 50.9333 495.2 52.4C493.467 53.7333 492.067 55.4 491 57.4C490.067 59.4 489.6 61.6667 489.6 64.2C489.6 67.6667 490.534 70.5333 492.4 72.8C494.4 74.9333 497.067 76.7333 500.4 78.2C503.734 79.5333 507.467 80.8 511.6 82C515.734 83.2 519.934 84.4667 524.2 85.8C528.6 87.2667 532.934 89 537.2 91C541.467 93 545.267 95.5333 548.6 98.6C551.934 101.533 554.6 105.267 556.6 109.8C558.6 114.2 559.6 119.6 559.6 126C559.6 133.333 558.2 139.733 555.4 145.2C552.6 150.667 548.8 155.133 544 158.6C539.2 162.067 533.867 164.6 528 166.2C522.134 167.933 516.2 168.8 510.2 168.8Z" fill="#1B4F49"/>
<path d="M617.161 166.8C611.028 166.8 605.361 165.733 600.161 163.6C595.095 161.333 590.628 158.133 586.761 154C582.895 149.867 579.895 144.933 577.761 139.2C575.628 133.467 574.561 127.133 574.561 120.2V80.4C574.561 78.1333 574.761 76.1333 575.161 74.4C575.561 72.5333 576.628 71.0667 578.361 70C580.095 68.9333 582.761 68.4 586.361 68.4C590.228 68.4 592.961 68.9333 594.561 70C596.295 71.0667 597.361 72.5333 597.761 74.4C598.161 76.2667 598.361 78.3333 598.361 80.6V120.2C598.361 125 599.161 129.133 600.761 132.6C602.495 136.067 604.961 138.8 608.161 140.8C611.361 142.667 615.295 143.6 619.961 143.6C624.761 143.6 628.828 142.667 632.161 140.8C635.628 138.8 638.295 136.067 640.161 132.6C642.028 129 642.961 124.867 642.961 120.2V80.2C642.961 77.9333 643.161 75.9333 643.561 74.2C643.961 72.3333 645.028 70.9333 646.761 70C648.495 68.9333 651.228 68.4 654.961 68.4C658.695 68.4 661.361 68.9333 662.961 70C664.561 71.0667 665.561 72.5333 665.961 74.4C666.495 76.2667 666.761 78.2667 666.761 80.4V155.4C666.761 157.4 666.495 159.267 665.961 161C665.561 162.733 664.495 164.133 662.761 165.2C661.161 166.267 658.495 166.8 654.761 166.8C652.095 166.8 649.961 166.467 648.361 165.8C646.895 165.267 645.761 164.533 644.961 163.6C644.295 162.533 643.828 161.467 643.561 160.4C643.428 159.333 643.361 158.267 643.361 157.2L644.961 151.8C644.161 153 642.961 154.467 641.361 156.2C639.761 157.8 637.761 159.467 635.361 161.2C633.095 162.8 630.428 164.133 627.361 165.2C624.295 166.267 620.895 166.8 617.161 166.8Z" fill="#1B4F49"/>
<path d="M768.118 166.8C763.451 166.8 759.251 166.333 755.518 165.4C751.918 164.467 748.718 163.067 745.918 161.2C743.118 159.2 740.784 156.8 738.918 154C737.051 151.2 735.651 147.933 734.718 144.2C733.784 140.333 733.318 136.067 733.318 131.4V35C733.318 32.7333 733.518 30.7333 733.918 29C734.318 27.1333 735.384 25.6667 737.118 24.6C738.851 23.5333 741.584 23 745.318 23C748.918 23 751.584 23.5333 753.318 24.6C755.051 25.6667 756.118 27.1333 756.518 29C757.051 30.7333 757.318 32.6667 757.318 34.8V132C757.318 133.867 757.518 135.467 757.918 136.8C758.318 138.133 758.918 139.267 759.718 140.2C760.651 141.133 761.784 141.8 763.118 142.2C764.584 142.6 766.251 142.8 768.118 142.8C771.184 142.8 773.584 143.2 775.318 144C777.051 144.8 778.318 146.067 779.118 147.8C779.918 149.533 780.318 151.867 780.318 154.8C780.318 157.6 779.851 159.933 778.918 161.8C778.118 163.533 776.784 164.8 774.918 165.6C773.184 166.4 770.918 166.8 768.118 166.8ZM717.518 166.8C713.118 166.8 709.184 166.333 705.718 165.4C702.251 164.6 699.251 163.267 696.718 161.4C694.184 159.533 692.051 157.2 690.318 154.4C688.718 151.6 687.518 148.333 686.718 144.6C685.918 140.733 685.518 136.333 685.518 131.4V35C685.518 32.7333 685.718 30.7333 686.118 29C686.518 27.1333 687.584 25.6667 689.318 24.6C691.051 23.5333 693.718 23 697.318 23C701.051 23 703.718 23.5333 705.318 24.6C707.051 25.6667 708.118 27.1333 708.518 29C709.051 30.7333 709.318 32.6667 709.318 34.8V132C709.318 134.533 709.651 136.6 710.318 138.2C711.118 139.8 712.118 141 713.318 141.8C714.518 142.467 715.918 142.8 717.518 142.8C720.051 142.8 722.051 143.2 723.518 144C724.984 144.8 725.984 146.067 726.518 147.8C727.184 149.533 727.518 151.867 727.518 154.8C727.518 157.6 727.184 159.933 726.518 161.8C725.851 163.533 724.784 164.8 723.318 165.6C721.851 166.4 719.918 166.8 717.518 166.8Z" fill="#1B4F49"/>
<path d="M808.497 167C804.897 167 802.231 166.4 800.497 165.2C798.764 164.133 797.697 162.733 797.297 161C796.897 159.133 796.697 157.067 796.697 154.8V80.4C796.697 78.2667 796.897 76.3333 797.297 74.6C797.831 72.7333 798.897 71.2667 800.497 70.2C802.231 69.1333 804.964 68.6 808.697 68.6C812.431 68.6 815.097 69.1333 816.697 70.2C818.431 71.2667 819.497 72.7333 819.897 74.6C820.297 76.4667 820.497 78.5333 820.497 80.8V155C820.497 157.267 820.297 159.333 819.897 161.2C819.497 162.933 818.431 164.333 816.697 165.4C815.097 166.467 812.364 167 808.497 167ZM808.497 49.2C804.631 49.2 801.764 48.6667 799.897 47.6C798.164 46.4 797.031 44.8 796.497 42.8C796.097 40.8 795.897 38.6 795.897 36.2C795.897 33.6667 796.097 31.4667 796.497 29.6C797.031 27.7333 798.231 26.2667 800.097 25.2C801.964 24 804.831 23.4 808.697 23.4C812.697 23.4 815.564 24 817.297 25.2C819.031 26.4 820.164 28 820.697 30C821.231 31.8667 821.497 34.0667 821.497 36.6C821.497 38.8667 821.231 41 820.697 43C820.164 45 819.031 46.5333 817.297 47.6C815.564 48.6667 812.631 49.2 808.497 49.2Z" fill="#1B4F49"/>
<path d="M886.977 167.4C884.177 167.4 881.844 166.933 879.977 166C878.11 165.067 876.644 163.533 875.577 161.4L839.177 85.2C837.177 81.2 836.644 78 837.577 75.6C838.51 73.2 840.91 71.0667 844.777 69.2C848.777 67.2 851.977 66.5333 854.377 67.2C856.777 67.8667 858.91 70.3333 860.777 74.6L886.977 136L912.777 75.8C914.644 71.4 916.777 68.6667 919.177 67.6C921.577 66.4 925.044 66.9333 929.577 69.2C934.11 71.4667 936.51 74 936.777 76.8C937.044 79.4667 936.31 82.5333 934.577 86L898.377 161.4C897.31 163.4 895.844 164.867 893.977 165.8C892.11 166.867 889.777 167.4 886.977 167.4Z" fill="#1B4F49"/>
<path d="M1026.53 166.6C1022.66 166.6 1019.79 165.867 1017.93 164.4C1016.06 162.933 1015.13 160.933 1015.13 158.4L1016.53 151.8C1015.46 153.533 1013.66 155.6 1011.13 158C1008.59 160.267 1005.26 162.333 1001.13 164.2C996.992 165.933 991.992 166.8 986.125 166.8C979.859 166.8 973.925 165.533 968.325 163C962.859 160.333 957.992 156.733 953.725 152.2C949.592 147.533 946.259 142.267 943.725 136.4C941.325 130.4 940.125 124 940.125 117.2C940.125 110.667 941.325 104.533 943.725 98.8C946.259 92.9333 949.659 87.7333 953.925 83.2C958.192 78.6667 963.059 75.1333 968.525 72.6C974.125 69.9333 979.992 68.6 986.125 68.6C991.592 68.6 996.192 69.3333 999.925 70.8C1003.79 72.2667 1007.06 74.1333 1009.73 76.4C1012.39 78.5333 1014.59 80.8 1016.33 83.2L1015.13 77.4C1015.13 74.4667 1016.06 72.2667 1017.93 70.8C1019.79 69.2 1022.73 68.4 1026.73 68.4C1030.46 68.4 1033.13 69 1034.73 70.2C1036.33 71.2667 1037.33 72.8 1037.73 74.8C1038.13 76.6667 1038.33 78.8 1038.33 81.2V154.4C1038.33 156.667 1038.13 158.733 1037.73 160.6C1037.33 162.467 1036.26 163.933 1034.53 165C1032.93 166.067 1030.26 166.6 1026.53 166.6ZM989.725 143.4C994.259 143.4 998.325 142.267 1001.93 140C1005.53 137.733 1008.39 134.667 1010.53 130.8C1012.79 126.8 1013.93 122.4 1013.93 117.6C1013.93 112.4 1012.79 107.867 1010.53 104C1008.26 100.133 1005.26 97.1333 1001.53 95C997.925 92.7333 993.859 91.6 989.326 91.6C984.392 91.6 979.992 92.8 976.125 95.2C972.259 97.4667 969.192 100.6 966.925 104.6C964.792 108.467 963.725 112.867 963.725 117.8C963.725 122.6 964.859 126.933 967.125 130.8C969.392 134.667 972.459 137.733 976.326 140C980.326 142.267 984.792 143.4 989.725 143.4Z" fill="#1B4F49"/>
<path d="M1070.19 166.8C1066.59 166.8 1063.93 166.2 1062.19 165C1060.59 163.933 1059.59 162.533 1059.19 160.8C1058.79 158.933 1058.59 156.867 1058.59 154.6V79.8C1058.59 77.6667 1058.79 75.7333 1059.19 74C1059.59 72.2667 1060.66 70.9333 1062.39 70C1064.13 68.9333 1066.79 68.4 1070.39 68.4C1073.59 68.4 1075.99 68.8 1077.59 69.6C1079.19 70.4 1080.26 71.4 1080.79 72.6C1081.33 73.8 1081.59 75 1081.59 76.2C1081.73 77.4 1081.86 78.3333 1081.99 79L1081.19 85.4C1081.99 83.2667 1083.33 81.2 1085.19 79.2C1087.06 77.2 1089.33 75.4 1091.99 73.8C1094.66 72.0667 1097.53 70.7333 1100.59 69.8C1103.79 68.7333 1107.06 68.2 1110.39 68.2C1116.66 68.2 1122.26 69.3333 1127.19 71.6C1132.13 73.8667 1136.33 77.0667 1139.79 81.2C1143.39 85.3333 1146.13 90.2667 1147.99 96C1149.86 101.6 1150.79 107.933 1150.79 115V154.8C1150.79 157.067 1150.53 159.133 1149.99 161C1149.59 162.733 1148.59 164.133 1146.99 165.2C1145.39 166.267 1142.66 166.8 1138.79 166.8C1135.06 166.8 1132.33 166.2 1130.59 165C1128.86 163.933 1127.79 162.533 1127.39 160.8C1126.99 158.933 1126.79 156.867 1126.79 154.6V114.8C1126.79 110 1125.93 105.867 1124.19 102.4C1122.59 98.9333 1120.19 96.2667 1116.99 94.4C1113.93 92.5333 1109.99 91.6 1105.19 91.6C1100.53 91.6 1096.46 92.6 1092.99 94.6C1089.53 96.4667 1086.86 99.1333 1084.99 102.6C1083.13 106.067 1082.19 110.133 1082.19 114.8V154.8C1082.19 157.067 1081.99 159.133 1081.59 161C1081.19 162.733 1080.13 164.133 1078.39 165.2C1076.79 166.267 1074.06 166.8 1070.19 166.8Z" fill="#1B4F49"/>
<path d="M1320.72 166.8C1316.98 166.8 1314.25 166.267 1312.52 165.2C1310.78 164.133 1309.72 162.667 1309.32 160.8C1308.92 158.8 1308.72 156.733 1308.72 154.6V39.2C1308.72 37.0667 1308.92 35.0667 1309.32 33.2C1309.85 31.3333 1310.92 29.8667 1312.52 28.8C1314.25 27.7333 1317.05 27.2 1320.92 27.2C1324.65 27.2 1327.32 27.7333 1328.92 28.8C1330.65 29.8667 1331.72 31.3333 1332.12 33.2C1332.65 35.0667 1332.92 37.1333 1332.92 39.4V154.8C1332.92 156.933 1332.65 158.933 1332.12 160.8C1331.72 162.667 1330.65 164.133 1328.92 165.2C1327.18 166.267 1324.45 166.8 1320.72 166.8ZM1233.12 166.8C1229.38 166.8 1226.65 166.267 1224.92 165.2C1223.32 164.133 1222.25 162.667 1221.72 160.8C1221.32 158.8 1221.12 156.733 1221.12 154.6V39.2C1221.12 37.0667 1221.32 35.0667 1221.72 33.2C1222.25 31.3333 1223.38 29.8667 1225.12 28.8C1226.85 27.7333 1229.58 27.2 1233.32 27.2C1237.18 27.2 1239.92 27.7333 1241.52 28.8C1243.25 29.8667 1244.32 31.3333 1244.72 33.2C1245.12 35.0667 1245.32 37.1333 1245.32 39.4V154.8C1245.32 156.933 1245.05 158.933 1244.52 160.8C1244.12 162.667 1243.05 164.133 1241.32 165.2C1239.72 166.267 1236.98 166.8 1233.12 166.8ZM1238.92 106.6V85H1311.92L1311.72 106.6H1238.92Z" fill="#1B4F49"/>
<path d="M1402.48 168.2C1393.81 168.2 1386.21 166.8 1379.68 164C1373.28 161.2 1367.88 157.4 1363.48 152.6C1359.21 147.667 1355.94 142.2 1353.68 136.2C1351.54 130.067 1350.48 123.733 1350.48 117.2C1350.48 107.6 1352.68 99.0667 1357.08 91.6C1361.48 84.1333 1367.54 78.2667 1375.28 74C1383.14 69.7333 1392.14 67.6 1402.28 67.6C1409.48 67.6 1415.81 68.7333 1421.28 71C1426.74 73.2667 1431.28 76.2667 1434.88 80C1438.61 83.6 1441.41 87.6 1443.28 92C1445.28 96.4 1446.28 100.667 1446.28 104.8C1446.28 111.867 1444.54 117 1441.08 120.2C1437.74 123.4 1433.54 125 1428.48 125H1375.68C1375.81 129.533 1377.21 133.467 1379.88 136.8C1382.68 140.133 1386.14 142.733 1390.28 144.6C1394.54 146.333 1398.88 147.2 1403.28 147.2C1406.61 147.2 1409.54 147 1412.08 146.6C1414.74 146.2 1417.01 145.733 1418.88 145.2C1420.74 144.533 1422.34 143.867 1423.68 143.2C1425.14 142.533 1426.48 141.933 1427.68 141.4C1428.88 140.867 1430.01 140.533 1431.08 140.4C1432.54 140.267 1434.01 140.6 1435.48 141.4C1436.94 142.2 1438.14 143.6 1439.08 145.6C1439.88 146.933 1440.41 148.2 1440.68 149.4C1441.08 150.467 1441.28 151.533 1441.28 152.6C1441.28 155.267 1439.68 157.8 1436.48 160.2C1433.28 162.467 1428.74 164.333 1422.88 165.8C1417.14 167.4 1410.34 168.2 1402.48 168.2ZM1375.68 110.8H1416.68C1418.94 110.8 1420.68 110.467 1421.88 109.8C1423.08 109 1423.68 107.4 1423.68 105C1423.68 101.933 1422.74 99.2 1420.88 96.8C1419.01 94.2667 1416.48 92.3333 1413.28 91C1410.08 89.5333 1406.34 88.8 1402.08 88.8C1397.14 88.8 1392.68 89.8 1388.68 91.8C1384.68 93.6667 1381.48 96.2667 1379.08 99.6C1376.81 102.933 1375.68 106.667 1375.68 110.8Z" fill="#1B4F49"/>
<path d="M1475.49 167C1471.89 167 1469.22 166.4 1467.49 165.2C1465.76 164.133 1464.69 162.733 1464.29 161C1463.89 159.133 1463.69 157.067 1463.69 154.8V80.4C1463.69 78.2667 1463.89 76.3333 1464.29 74.6C1464.82 72.7333 1465.89 71.2667 1467.49 70.2C1469.22 69.1333 1471.96 68.6 1475.69 68.6C1479.42 68.6 1482.09 69.1333 1483.69 70.2C1485.42 71.2667 1486.49 72.7333 1486.89 74.6C1487.29 76.4667 1487.49 78.5333 1487.49 80.8V155C1487.49 157.267 1487.29 159.333 1486.89 161.2C1486.49 162.933 1485.42 164.333 1483.69 165.4C1482.09 166.467 1479.36 167 1475.49 167ZM1475.49 49.2C1471.62 49.2 1468.76 48.6667 1466.89 47.6C1465.16 46.4 1464.02 44.8 1463.49 42.8C1463.09 40.8 1462.89 38.6 1462.89 36.2C1462.89 33.6667 1463.09 31.4667 1463.49 29.6C1464.02 27.7333 1465.22 26.2667 1467.09 25.2C1468.96 24 1471.82 23.4 1475.69 23.4C1479.69 23.4 1482.56 24 1484.29 25.2C1486.02 26.4 1487.16 28 1487.69 30C1488.22 31.8667 1488.49 34.0667 1488.49 36.6C1488.49 38.8667 1488.22 41 1487.69 43C1487.16 45 1486.02 46.5333 1484.29 47.6C1482.56 48.6667 1479.62 49.2 1475.49 49.2Z" fill="#1B4F49"/>
<path d="M1552.37 207C1547.57 207 1542.97 206.4 1538.57 205.2C1534.17 204.133 1530.17 202.667 1526.57 200.8C1523.1 198.933 1520.3 196.933 1518.17 194.8C1516.17 192.667 1515.17 190.667 1515.17 188.8C1515.17 186.933 1515.44 185.333 1515.97 184C1516.64 182.667 1517.57 181.333 1518.77 180C1520.37 178.4 1521.64 177.2 1522.57 176.4C1523.64 175.6 1525.04 175.2 1526.77 175.2C1528.24 175.2 1529.64 175.733 1530.97 176.8C1532.44 177.867 1534.1 179.067 1535.97 180.4C1537.84 181.733 1540.1 182.933 1542.77 184C1545.44 185.067 1548.84 185.6 1552.97 185.6C1556.44 185.6 1559.64 185 1562.57 183.8C1565.5 182.6 1567.97 180.8 1569.97 178.4C1572.1 176.133 1573.77 173.4 1574.97 170.2C1576.17 167 1576.77 163.4 1576.77 159.4L1576.57 76.6C1576.84 73.5333 1577.9 71.4 1579.77 70.2C1581.64 68.8667 1584.5 68.2 1588.37 68.2C1591.97 68.2 1594.57 68.7333 1596.17 69.8C1597.77 70.7333 1598.77 72.1333 1599.17 74C1599.57 75.7333 1599.77 77.6667 1599.77 79.8V160.8C1599.77 168.133 1598.5 174.667 1595.97 180.4C1593.44 186.133 1589.97 190.933 1585.57 194.8C1581.17 198.8 1576.1 201.8 1570.37 203.8C1564.77 205.933 1558.77 207 1552.37 207ZM1550.17 164.4C1543.9 164.4 1538.04 163.2 1532.57 160.8C1527.24 158.4 1522.5 155 1518.37 150.6C1514.37 146.2 1511.17 141.133 1508.77 135.4C1506.5 129.533 1505.37 123.2 1505.37 116.4C1505.37 109.733 1506.5 103.533 1508.77 97.8C1511.17 92.0667 1514.37 87 1518.37 82.6C1522.5 78.2 1527.24 74.8 1532.57 72.4C1538.04 69.8667 1543.84 68.6 1549.97 68.6C1555.97 68.6 1561.17 69.8 1565.57 72.2C1570.1 74.4667 1573.84 77.7333 1576.77 82C1579.7 86.2667 1581.9 91.3333 1583.37 97.2C1584.97 103.067 1585.77 109.533 1585.77 116.6C1585.77 126.333 1584.44 134.8 1581.77 142C1579.1 149.2 1575.17 154.733 1569.97 158.6C1564.77 162.467 1558.17 164.4 1550.17 164.4ZM1552.37 141.8C1556.9 141.8 1560.9 140.733 1564.37 138.6C1567.97 136.333 1570.77 133.267 1572.77 129.4C1574.9 125.533 1575.97 121.2 1575.97 116.4C1575.97 111.467 1574.9 107.133 1572.77 103.4C1570.77 99.5333 1567.97 96.5333 1564.37 94.4C1560.77 92.2667 1556.7 91.2 1552.17 91.2C1547.64 91.2 1543.57 92.3333 1539.97 94.6C1536.5 96.7333 1533.77 99.6667 1531.77 103.4C1529.77 107.133 1528.77 111.467 1528.77 116.4C1528.77 121.333 1529.77 125.733 1531.77 129.6C1533.9 133.333 1536.7 136.333 1540.17 138.6C1543.77 140.733 1547.84 141.8 1552.37 141.8Z" fill="#1B4F49"/>
<path d="M1631.89 167C1628.15 167 1625.42 166.4 1623.69 165.2C1622.09 164.133 1621.09 162.667 1620.69 160.8C1620.29 158.933 1620.09 156.933 1620.09 154.8V35.4C1620.09 33.1333 1620.29 31.1333 1620.69 29.4C1621.22 27.5333 1622.29 26.0667 1623.89 25C1625.62 23.9333 1628.35 23.4 1632.09 23.4C1635.82 23.4 1638.49 24 1640.09 25.2C1641.82 26.2667 1642.89 27.7333 1643.29 29.6C1643.82 31.3333 1644.09 33.3333 1644.09 35.6V80.8C1646.75 77.7333 1650.15 74.9333 1654.29 72.4C1658.55 69.7333 1663.69 68.4 1669.69 68.4C1677.82 68.4 1685.09 70.4 1691.49 74.4C1697.89 78.2667 1702.95 83.6667 1706.69 90.6C1710.42 97.5333 1712.29 105.667 1712.29 115V155C1712.29 157.133 1712.09 159.133 1711.69 161C1711.29 162.733 1710.22 164.133 1708.49 165.2C1706.89 166.267 1704.22 166.8 1700.49 166.8C1696.75 166.8 1694.02 166.267 1692.29 165.2C1690.55 164.133 1689.49 162.733 1689.09 161C1688.69 159.133 1688.49 157 1688.49 154.6V114.8C1688.49 110.133 1687.69 106.067 1686.09 102.6C1684.49 99.1333 1682.09 96.4667 1678.89 94.6C1675.82 92.6 1671.95 91.6 1667.29 91.6C1661.02 91.6 1655.75 93.4667 1651.49 97.2C1647.22 100.8 1644.75 105.467 1644.09 111.2V155C1644.09 157.133 1643.82 159.133 1643.29 161C1642.89 162.867 1641.82 164.333 1640.09 165.4C1638.49 166.467 1635.75 167 1631.89 167Z" fill="#1B4F49"/>
<path d="M1776.13 167C1769.6 167 1764 166.333 1759.33 165C1754.67 163.667 1750.87 161.6 1747.93 158.8C1745 156 1742.8 152.4 1741.33 148C1740 143.467 1739.33 138.133 1739.33 132V47.2C1739.33 44.8 1739.53 42.7333 1739.93 41C1740.47 39.2667 1741.53 37.9333 1743.13 37C1744.87 35.9333 1747.53 35.4 1751.13 35.4C1754.87 35.4 1757.53 35.9333 1759.13 37C1760.87 38.0667 1761.93 39.5333 1762.33 41.4C1762.87 43.1333 1763.13 45.0667 1763.13 47.2V131.2C1763.13 134 1763.33 136.267 1763.73 138C1764.27 139.733 1765 141.067 1765.93 142C1767 142.8 1768.33 143.4 1769.93 143.8C1771.67 144.067 1773.73 144.2 1776.13 144.2C1778.67 144.2 1780.8 144.4 1782.53 144.8C1784.4 145.2 1785.8 146.2 1786.73 147.8C1787.67 149.267 1788.13 151.733 1788.13 155.2C1788.13 158.933 1787.53 161.667 1786.33 163.4C1785.27 165 1783.8 166 1781.93 166.4C1780.2 166.8 1778.27 167 1776.13 167ZM1731.13 70.4L1751.73 70.6L1779.33 69.8C1781.6 69.8 1783.6 70.0667 1785.33 70.6C1787.2 71 1788.67 72.0667 1789.73 73.8C1790.8 75.4 1791.33 78.0667 1791.33 81.8C1791.33 85.2667 1790.8 87.8667 1789.73 89.6C1788.67 91.3333 1787.27 92.4667 1785.53 93C1783.8 93.4 1781.8 93.6 1779.53 93.6L1752.73 93.2L1730.53 93.4C1727.2 93.2667 1724.87 92.3333 1723.53 90.6C1722.33 88.7333 1721.73 85.7333 1721.73 81.6C1721.73 77.7333 1722.47 74.9333 1723.93 73.2C1725.53 71.3333 1727.93 70.4 1731.13 70.4Z" fill="#1B4F49"/>
<path d="M1840.44 168.2C1836.98 168.2 1833.31 167.8 1829.44 167C1825.58 166.333 1821.84 165.333 1818.24 164C1814.64 162.533 1811.51 160.867 1808.84 159C1806.31 157 1804.71 154.8 1804.04 152.4C1803.51 151.067 1803.31 149.8 1803.44 148.6C1803.58 147.267 1803.98 145.933 1804.64 144.6C1805.31 143.133 1806.31 141.667 1807.64 140.2C1808.84 138.733 1810.04 137.933 1811.24 137.8C1812.58 137.533 1814.24 137.933 1816.24 139C1817.98 139.667 1819.84 140.533 1821.84 141.6C1823.98 142.667 1826.11 143.733 1828.24 144.8C1830.51 145.867 1832.78 146.733 1835.04 147.4C1837.44 148.067 1839.78 148.4 1842.04 148.4C1846.98 148.4 1850.91 147.6 1853.84 146C1856.78 144.267 1858.24 141.867 1858.24 138.8C1858.24 137.067 1857.78 135.533 1856.84 134.2C1855.91 132.867 1854.64 131.8 1853.04 131C1851.58 130.067 1849.78 129.267 1847.64 128.6C1845.64 127.8 1843.44 127.133 1841.04 126.6C1838.78 125.933 1836.38 125.2 1833.84 124.4C1830.51 123.467 1827.18 122.333 1823.84 121C1820.51 119.667 1817.51 117.933 1814.84 115.8C1812.31 113.667 1810.24 111 1808.64 107.8C1807.04 104.6 1806.24 100.6 1806.24 95.8C1806.24 89.8 1807.64 84.7333 1810.44 80.6C1813.38 76.3333 1817.58 73.0667 1823.04 70.8C1828.51 68.5333 1835.11 67.4 1842.84 67.4C1845.51 67.4 1848.04 67.6 1850.44 68C1852.98 68.4 1855.38 69 1857.64 69.8C1860.04 70.4667 1862.31 71.3333 1864.44 72.4C1866.71 73.4667 1868.84 74.6667 1870.84 76C1874.18 77.8667 1875.91 80.0667 1876.04 82.6C1876.18 85 1875.24 87.6 1873.24 90.4C1871.78 92.2667 1870.31 93.6 1868.84 94.4C1867.38 95.0667 1865.84 95.0667 1864.24 94.4C1862.11 93.3333 1859.78 92.2 1857.24 91C1854.84 89.6667 1852.31 88.5333 1849.64 87.6C1847.11 86.6667 1844.44 86.2 1841.64 86.2C1838.98 86.2 1836.58 86.6 1834.44 87.4C1832.31 88.2 1830.71 89.3333 1829.64 90.8C1828.58 92.2667 1828.04 94 1828.04 96C1828.04 97.8667 1828.58 99.4 1829.64 100.6C1830.71 101.8 1832.11 102.8 1833.84 103.6C1835.58 104.4 1837.64 105.133 1840.04 105.8C1842.44 106.333 1844.98 106.867 1847.64 107.4C1851.38 108.2 1855.18 109.2 1859.04 110.4C1862.91 111.6 1866.44 113.267 1869.64 115.4C1872.98 117.533 1875.64 120.4 1877.64 124C1879.64 127.467 1880.64 132 1880.64 137.6C1880.64 147.333 1877.04 154.867 1869.84 160.2C1862.78 165.533 1852.98 168.2 1840.44 168.2Z" fill="#1B4F49"/>
<path d="M483.267 345.118H467.631L467.732 336.338H483.267C487.792 336.338 491.58 335.471 494.63 333.735C497.714 332 500.027 329.515 501.568 326.279C503.144 323.044 503.931 319.191 503.931 314.721V311.235C503.931 307.765 503.479 304.691 502.574 302.015C501.703 299.338 500.395 297.088 498.652 295.265C496.943 293.441 494.831 292.059 492.317 291.118C489.837 290.176 486.971 289.706 483.72 289.706H467.329V280.882H483.72C488.58 280.882 493.021 281.603 497.043 283.044C501.066 284.456 504.535 286.5 507.451 289.176C510.401 291.853 512.663 295.059 514.238 298.794C515.814 302.529 516.601 306.706 516.601 311.324V314.721C516.601 319.338 515.814 323.515 514.238 327.25C512.663 330.985 510.401 334.191 507.451 336.868C504.501 339.515 500.982 341.559 496.893 343C492.837 344.412 488.295 345.118 483.267 345.118ZM474.62 280.882V345.118H462V280.882H474.62Z" fill="#1B4F49" fill-opacity="0.6"/>
<path d="M635.878 336.338V345.118H597.013V336.338H635.878ZM600.583 280.882V345.118H587.963V280.882H600.583ZM630.8 307.706V316.353H597.013V307.706H630.8ZM635.627 280.882V289.706H597.013V280.882H635.627Z" fill="#1B4F49" fill-opacity="0.6"/>
<path d="M762.947 280.882V345.118H750.328L717.497 299.103V345.118H704.877V280.882H717.497L750.428 326.985V280.882H762.947Z" fill="#1B4F49" fill-opacity="0.6"/>
<path d="M865.28 280.882V345.118H852.761V280.882H865.28ZM888.257 280.882V289.706H829.986V280.882H888.257Z" fill="#1B4F49" fill-opacity="0.6"/>
<path d="M980.283 289.441L958.413 345.118H945.19L972.742 280.882H981.188L980.283 289.441ZM998.584 345.118L976.663 289.441L975.708 280.882H984.205L1011.86 345.118H998.584ZM997.529 321.294V330.074H957.709V321.294H997.529Z" fill="#1B4F49" fill-opacity="0.6"/>
<path d="M1124.6 336.338V345.118H1087.85V336.338H1124.6ZM1091.36 280.882V345.118H1078.74V280.882H1091.36Z" fill="#1B4F49" fill-opacity="0.6"/>
<path d="M1320.62 324.206H1333.19C1332.78 328.412 1331.44 332.162 1329.16 335.456C1326.88 338.721 1323.68 341.294 1319.56 343.176C1315.44 345.059 1310.43 346 1304.53 346C1300 346 1295.93 345.294 1292.31 343.882C1288.69 342.441 1285.59 340.412 1283.01 337.794C1280.43 335.147 1278.45 331.956 1277.08 328.221C1275.74 324.485 1275.06 320.309 1275.06 315.691V310.353C1275.06 305.735 1275.75 301.559 1277.13 297.824C1278.53 294.088 1280.55 290.897 1283.16 288.25C1285.77 285.574 1288.91 283.529 1292.56 282.118C1296.25 280.706 1300.39 280 1304.98 280C1310.81 280 1315.74 280.941 1319.76 282.824C1323.78 284.706 1326.9 287.309 1329.11 290.632C1331.36 293.956 1332.73 297.765 1333.24 302.059H1320.67C1320.33 299.294 1319.59 296.926 1318.45 294.956C1317.35 292.985 1315.71 291.485 1313.53 290.456C1311.35 289.397 1308.5 288.868 1304.98 288.868C1302.1 288.868 1299.58 289.338 1297.44 290.279C1295.29 291.221 1293.5 292.603 1292.06 294.426C1290.62 296.25 1289.53 298.5 1288.79 301.176C1288.09 303.824 1287.73 306.853 1287.73 310.265V315.691C1287.73 318.926 1288.05 321.868 1288.69 324.515C1289.36 327.132 1290.37 329.382 1291.71 331.265C1293.08 333.147 1294.82 334.603 1296.94 335.632C1299.05 336.662 1301.58 337.176 1304.53 337.176C1308.11 337.176 1311.01 336.676 1313.23 335.676C1315.47 334.676 1317.16 333.221 1318.3 331.309C1319.48 329.368 1320.25 327 1320.62 324.206Z" fill="#1B4F49" fill-opacity="0.6"/>
<path d="M1449.19 336.338V345.118H1412.44V336.338H1449.19ZM1415.96 280.882V345.118H1403.34V280.882H1415.96Z" fill="#1B4F49" fill-opacity="0.6"/>
<path d="M1531.11 280.882V345.118H1518.49V280.882H1531.11Z" fill="#1B4F49" fill-opacity="0.6"/>
<path d="M1663.56 280.882V345.118H1650.94L1618.11 299.103V345.118H1605.49V280.882H1618.11L1651.04 326.985V280.882H1663.56Z" fill="#1B4F49" fill-opacity="0.6"/>
<path d="M1750.76 280.882V345.118H1738.14V280.882H1750.76Z" fill="#1B4F49" fill-opacity="0.6"/>
<path d="M1868.38 324.206H1880.95C1880.55 328.412 1879.21 332.162 1876.93 335.456C1874.65 338.721 1871.45 341.294 1867.32 343.176C1863.2 345.059 1858.19 346 1852.29 346C1847.77 346 1843.69 345.294 1840.07 343.882C1836.45 342.441 1833.35 340.412 1830.77 337.794C1828.19 335.147 1826.21 331.956 1824.84 328.221C1823.5 324.485 1822.83 320.309 1822.83 315.691V310.353C1822.83 305.735 1823.52 301.559 1824.89 297.824C1826.3 294.088 1828.31 290.897 1830.92 288.25C1833.54 285.574 1836.67 283.529 1840.33 282.118C1844.01 280.706 1848.15 280 1852.74 280C1858.58 280 1863.5 280.941 1867.53 282.824C1871.55 284.706 1874.67 287.309 1876.88 290.632C1879.12 293.956 1880.5 297.765 1881 302.059H1868.43C1868.1 299.294 1867.36 296.926 1866.22 294.956C1865.11 292.985 1863.47 291.485 1861.29 290.456C1859.11 289.397 1856.26 288.868 1852.74 288.868C1849.86 288.868 1847.35 289.338 1845.2 290.279C1843.06 291.221 1841.26 292.603 1839.82 294.426C1838.38 296.25 1837.29 298.5 1836.55 301.176C1835.85 303.824 1835.5 306.853 1835.5 310.265V315.691C1835.5 318.926 1835.82 321.868 1836.45 324.515C1837.12 327.132 1838.13 329.382 1839.47 331.265C1840.84 333.147 1842.59 334.603 1844.7 335.632C1846.81 336.662 1849.34 337.176 1852.29 337.176C1855.88 337.176 1858.78 336.676 1860.99 335.676C1863.24 334.676 1864.93 333.221 1866.07 331.309C1867.24 329.368 1868.01 327 1868.38 324.206Z" fill="#1B4F49" fill-opacity="0.6"/>
<g clip-path="url(#clip0_10_71)">
<path d="M269.379 243.85L277.724 263.763C282.305 274.698 297.798 274.698 302.38 263.763L310.725 243.85C312.08 240.616 314.652 238.043 317.887 236.688L337.8 228.344C348.735 223.762 348.735 208.269 337.8 203.687L317.887 195.343C314.653 193.987 312.08 191.415 310.725 188.181L302.38 168.268C297.798 157.333 282.305 157.333 277.724 168.268L269.379 188.181C268.024 191.415 265.451 193.988 262.217 195.343L242.305 203.687C231.37 208.269 231.37 223.762 242.305 228.344L262.217 236.688C265.451 238.043 268.024 240.616 269.379 243.85Z" fill="#6DC8DD"/>
<path d="M160.493 244.459C177.158 244.459 178.733 339.15 228.447 339.15C250.993 339.15 275.138 314.861 275.138 255.864C275.138 180.837 320.985 179.044 320.985 103.863C320.985 58.101 279.826 21.004 229.054 21.004C206.913 21.004 186.603 28.0612 170.735 39.8144C164.675 44.3029 156.31 44.3029 150.249 39.8144C134.382 28.0619 114.072 21.004 91.9306 21.004C41.1585 21.004 0 58.101 0 103.863C0 179.044 45.8464 180.837 45.8464 255.864C45.8464 314.861 69.992 339.15 92.5388 339.15C142.253 339.15 143.827 244.459 160.493 244.459Z" fill="#FBF1CF"/>
<path d="M80.7505 21.6149C35.2521 26.5873 0 61.5123 0 103.863C0 179.044 45.8464 180.837 45.8464 255.864C45.8464 314.861 69.992 339.15 92.5388 339.15C129.609 339.15 139.912 286.504 149.666 259.723C84.128 234.676 8.80813 91.0879 80.7505 21.6149Z" fill="#F9DFBC"/>
<path d="M111.908 142.584C111.914 155.079 99.2001 165.214 83.5105 165.222C67.8202 165.231 55.0959 155.108 55.0898 142.613C55.0838 130.118 67.7979 119.983 83.4882 119.975C99.1771 119.967 111.902 130.089 111.908 142.584Z" fill="#EDA1AB"/>
<path d="M209.078 142.535C209.084 155.03 221.809 165.152 237.499 165.144C253.188 165.136 265.903 155.001 265.896 142.506C265.89 130.011 253.165 119.888 237.476 119.896C221.786 119.905 209.072 130.041 209.078 142.535Z" fill="#EDA1AB"/>
<path d="M188.336 132.318C188.327 115.108 175.859 113.497 160.479 113.504C145.099 113.512 132.632 115.136 132.641 132.346C132.649 149.556 145.124 163.501 160.504 163.493C175.884 163.486 188.345 149.528 188.336 132.318Z" fill="#4E5660"/>
<path d="M221.583 121.714C221.579 121.714 221.576 121.714 221.573 121.714C218.773 121.709 216.508 119.435 216.514 116.636L216.535 105.479C216.54 102.683 218.809 100.42 221.603 100.42H221.613C224.412 100.425 226.677 102.698 226.672 105.497L226.651 116.655C226.645 119.452 224.376 121.714 221.583 121.714Z" fill="#4E5660"/>
<path d="M117.837 120.693C117.833 120.693 117.83 120.693 117.825 120.693C115.026 120.687 112.762 118.412 112.769 115.613C112.778 111.198 109.194 107.598 104.779 107.588C100.379 107.586 96.7634 111.163 96.7539 115.579C96.7478 118.374 94.4792 120.636 91.6856 120.636C91.6815 120.636 91.6781 120.636 91.6741 120.636C88.875 120.63 86.6104 118.356 86.6172 115.556C86.6388 105.565 94.7752 97.4517 104.761 97.4517H104.801C109.647 97.4625 114.2 99.3594 117.619 102.794C121.039 106.229 122.916 110.79 122.905 115.636C122.899 118.431 120.63 120.693 117.837 120.693Z" fill="#4E5660"/>
<path d="M30.5544 268.299L35.7613 280.725C38.6205 287.548 48.2883 287.548 51.1475 280.725L56.3544 268.299C57.2005 266.28 58.8055 264.675 60.824 263.829L73.2503 258.622C80.0736 255.763 80.0736 246.095 73.2503 243.236L60.824 238.029C58.8055 237.183 57.2005 235.578 56.3544 233.56L51.1475 221.133C48.2883 214.31 38.6205 214.31 35.7613 221.133L30.5544 233.56C29.7083 235.578 28.1034 237.183 26.0848 238.029L13.6585 243.236C6.83517 246.095 6.83517 255.763 13.6585 258.622L26.0848 263.829C28.1034 264.675 29.709 266.28 30.5544 268.299Z" fill="#EA7035"/>
<path d="M275.227 72.3613L281.752 87.9313C285.335 96.4813 297.448 96.4813 301.031 87.9313L307.556 72.3613C308.616 69.8319 310.627 67.8207 313.156 66.7611L328.726 60.2365C337.276 56.6535 337.276 44.5401 328.726 40.9571L313.156 34.4324C310.627 33.3728 308.616 31.361 307.556 28.8322L301.031 13.2622C297.448 4.71224 285.335 4.71224 281.752 13.2622L275.227 28.8322C274.168 31.361 272.156 33.3728 269.627 34.4324L254.057 40.9571C245.507 44.5401 245.507 56.6541 254.057 60.2365L269.627 66.7611C272.156 67.8207 274.167 69.8319 275.227 72.3613Z" fill="#81DCD9"/>
</g>
<defs>
<clipPath id="clip0_10_71">
<rect width="346" height="346" fill="white"/>
</clipPath>
</defs>
</svg>
