<svg id="Capa_1" enable-background="new 0 0 497 497" height="512" viewBox="0 0 497 497" width="512" xmlns="http://www.w3.org/2000/svg"><g><g><g><path d="m67.008 102.161h-.008v207.646c0 28.67 23.241 51.911 51.911 51.911h326.177c28.67 0 51.911-23.241 51.911-51.911v-207.64z" fill="#ffb357"/><g><path d="m358.065 170.868c-20.172-20.172-47.532-31.505-76.06-31.505s-55.887 11.333-76.06 31.505l-138.945 138.939c0 28.67 23.241 51.911 51.911 51.911h326.177c28.67 0 51.911-23.241 51.911-51.911z" fill="#ffce71"/><path d="m139.243 309.807v-72.24h-72.243v72.24c0 28.67 23.241 51.911 51.911 51.911h72.243c-28.669.001-51.911-23.241-51.911-51.911z" fill="#ffb357"/></g><g><path d="m445.082 50.25h-326.171c-28.67 0-51.911 23.241-51.911 51.911l138.943 138.944c20.172 20.172 47.532 31.505 76.06 31.505s55.887-11.333 76.06-31.505l138.937-138.944c0-28.673-23.244-51.911-51.918-51.911z" fill="#fce3a0"/><path d="m139.243 174.402v-72.24c0-28.67 23.241-51.911 51.911-51.911h-72.243c-28.67-.001-51.911 23.24-51.911 51.91l72.24 72.24h.003z" fill="#ffce71"/></g></g></g><g><g><path d="m279.949 374.241-26.724-26.724c-12.076-12.076-31.195-13.435-44.858-3.188-12.001 9-27.83 11.081-41.748 5.487-15.877-6.38-30.112-15.853-41.995-27.687-11.834-11.883-21.307-26.118-27.687-41.995-5.731-14.261-3.245-30.107 5.487-41.749 10.247-13.663 8.889-32.781-3.188-44.858-.277-.277-2.024-2.025-26.724-26.724-15.449-15.449-41.21-12.72-53.079 5.623v.001c-22.571 34.883-25.687 78.899-8.256 116.614 25.037 54.171 65.341 99.005 114.935 129.56 10.167 6.264 20.709 11.942 31.6 16.975 16.201 7.488 33.565 11.182 50.868 11.173 22.977-.011 45.848-6.554 65.746-19.429h.001c18.342-11.869 21.071-37.63 5.622-53.079zm-186.108-103.738s-.051-2.92 0-6.275z" fill="#ff8e9e"/><path d="m93.841 270.503s-.063-3.543.019-7.31c.191-8.824 3.099-17.521 8.564-24.808 10.247-13.663 8.889-32.781-3.188-44.858-7.036-7.036-1.648-1.648-26.724-26.724-15.449-15.449-41.21-12.72-53.079 5.623v.001c-22.571 34.883-25.687 78.899-8.256 116.614 24.856 53.78 65 98.794 114.935 129.56-21.263-46.476-32.271-96.986-32.271-148.098z" fill="#ea5b70"/></g></g><g><g><g><g><ellipse cx="208.089" cy="197.869" fill="#ff8e9e" rx="25" ry="19.909"/></g><g><ellipse cx="355.911" cy="197.869" fill="#ff8e9e" rx="25" ry="19.909"/></g></g></g><g fill="#313d40"><path d="m219.551 165.865c-4.143 0-7.5 3.357-7.5 7.5v12c0 4.143 3.357 7.5 7.5 7.5s7.5-3.357 7.5-7.5v-12c0-4.142-3.358-7.5-7.5-7.5z"/><path d="m344.448 165.865c-4.143 0-7.5 3.357-7.5 7.5v12c0 4.143 3.357 7.5 7.5 7.5s7.5-3.357 7.5-7.5v-12c0-4.142-3.357-7.5-7.5-7.5z"/><path d="m303.391 179.354c-3.122-2.722-7.861-2.397-10.581.728-2.729 3.132-6.669 4.928-10.81 4.928s-8.08-1.796-10.81-4.928c-2.721-3.124-7.459-3.448-10.581-.728-3.123 2.721-3.449 7.459-.728 10.581 5.578 6.402 13.641 10.074 22.118 10.074s16.54-3.672 22.118-10.074c2.723-3.122 2.397-7.861-.726-10.581z"/></g></g></g></svg>