<svg width="512" height="512" viewBox="0 0 512 512" fill="none" xmlns="http://www.w3.org/2000/svg">
<g clip-path="url(#clip0_7_39)">
<path d="M401.793 510.965C413.343 510.965 422.351 500.836 420.866 489.382C410.285 407.759 340.505 344.711 256 344.711C171.495 344.711 101.715 407.759 91.1342 489.382C89.6492 500.836 98.6572 510.965 110.207 510.965H401.793Z" fill="#B9E6FF"/>
<path d="M324.564 391.037C324.564 353.17 293.867 322.473 256 322.473C218.133 322.473 187.436 353.17 187.436 391.037C187.436 428.904 218.133 448.234 256 448.234C293.867 448.234 324.564 428.904 324.564 391.037Z" fill="#8DAEE1"/>
<path d="M74.154 304.131C113.554 304.131 145.494 274.526 145.494 238.007C145.494 201.488 113.554 171.883 74.154 171.883C34.754 171.883 2.81396 201.488 2.81396 238.007C2.81396 274.526 34.754 304.131 74.154 304.131Z" fill="#FFD3BD"/>
<path d="M437.881 304.131C477.281 304.131 509.221 274.526 509.221 238.007C509.221 201.488 477.281 171.883 437.881 171.883C398.481 171.883 366.541 201.488 366.541 238.007C366.541 274.526 398.481 304.131 437.881 304.131Z" fill="#FFBE9D"/>
<path d="M453.257 238.007C453.257 340.123 364.942 405.175 256 405.175C147.058 405.175 58.7432 340.123 58.7432 238.007C58.7432 135.891 147.058 53.1094 256 53.1094C364.942 53.1094 453.257 135.89 453.257 238.007Z" fill="#FFD3BD"/>
<path d="M345.032 389.001C106.391 383.625 109.941 141.317 178.274 68.0234C107.981 96.3014 58.7432 161.759 58.7432 238.003C58.7432 340.119 147.058 405.171 256 405.171C288.036 405.172 318.284 399.54 345.032 389.001Z" fill="#FFBE9D"/>
<path d="M182.058 260.243C182.068 279.259 162.717 294.684 138.838 294.696C114.959 294.708 95.593 279.302 95.584 260.286C95.574 241.27 114.925 225.844 138.804 225.832C162.682 225.821 182.048 241.227 182.058 260.243Z" fill="#EDA1AB"/>
<path d="M329.943 260.168C329.953 279.184 349.318 294.59 373.197 294.578C397.076 294.566 416.426 279.141 416.417 260.125C416.407 241.109 397.042 225.702 373.163 225.715C349.283 225.726 329.933 241.151 329.943 260.168Z" fill="#EDA1AB"/>
<path d="M298.375 244.617C298.362 218.424 279.386 215.972 255.978 215.984C232.571 215.996 213.597 218.466 213.61 244.659C213.623 270.852 232.609 292.075 256.016 292.063C279.423 292.053 298.388 270.81 298.375 244.617Z" fill="white"/>
<path d="M143.42 230.297C139.279 230.297 135.922 226.942 135.92 222.801C135.916 215.301 138.833 208.248 144.134 202.942C149.435 197.635 156.485 194.711 163.985 194.707H163.999C179.477 194.707 192.072 207.294 192.08 222.773C192.082 226.915 188.726 230.275 184.584 230.277C184.582 230.277 184.581 230.277 184.58 230.277C180.439 230.277 177.082 226.922 177.08 222.781C177.076 215.571 171.209 209.707 163.999 209.707C163.997 209.707 163.995 209.707 163.993 209.707C160.5 209.709 157.216 211.071 154.746 213.543C152.277 216.015 150.918 219.3 150.92 222.794C150.922 226.936 147.566 230.296 143.424 230.298C143.423 230.297 143.421 230.297 143.42 230.297Z" fill="#4E5660"/>
<path d="M327.382 230.203C323.241 230.203 319.884 226.848 319.882 222.706C319.879 215.206 322.796 208.153 328.096 202.847C333.397 197.54 340.447 194.616 347.948 194.613H347.963C363.44 194.613 376.034 207.2 376.042 222.678C376.044 226.82 372.688 230.18 368.546 230.182C368.545 230.182 368.543 230.182 368.542 230.182C364.401 230.182 361.044 226.827 361.042 222.686C361.038 215.476 355.171 209.613 347.962 209.613C347.96 209.613 347.958 209.613 347.955 209.613C344.461 209.615 341.177 210.977 338.708 213.449C336.239 215.921 334.88 219.206 334.881 222.7C334.883 226.842 331.527 230.201 327.384 230.203C327.385 230.203 327.383 230.203 327.382 230.203Z" fill="#4E5660"/>
<path d="M332.469 288.887L337.713 276.373C340.593 269.501 350.328 269.501 353.208 276.373L358.452 288.887C359.304 290.92 360.92 292.536 362.953 293.388L375.467 298.632C382.338 301.512 382.338 311.247 375.467 314.127L362.953 319.371C360.92 320.223 359.304 321.839 358.452 323.872L353.208 336.386C350.329 343.257 340.593 343.257 337.713 336.386L332.469 323.872C331.617 321.839 330.001 320.223 327.968 319.371L315.454 314.127C308.583 311.248 308.583 301.512 315.454 298.632L327.968 293.388C330.001 292.536 331.617 290.919 332.469 288.887Z" fill="#6DC8DD"/>
<path d="M48.15 83.203L42.906 95.717C40.026 102.589 30.291 102.589 27.411 95.717L22.167 83.203C21.315 81.17 19.699 79.554 17.666 78.702L5.154 73.458C-1.718 70.579 -1.718 60.843 5.154 57.963L17.668 52.719C19.701 51.867 21.317 50.251 22.169 48.218L27.413 35.704C30.292 28.833 40.028 28.833 42.908 35.704L48.152 48.218C49.004 50.251 50.62 51.867 52.653 52.719L65.167 57.963C72.038 60.843 72.038 70.578 65.167 73.458L52.653 78.702C50.619 79.554 49.002 81.17 48.15 83.203Z" fill="#81DCD9"/>
<path d="M244.718 5.25391C251.196 -0.371094 260.803 -0.371094 267.281 5.25391C298.978 32.7789 353.352 43.4439 387.058 68.5749C436.032 105.089 455.009 160.168 457.301 201.136C457.833 210.648 447.719 217.021 439.284 212.593C407.208 195.753 374.142 161.673 348.794 119.068C326.065 130.629 281.644 133.298 256 133.298C230.356 133.298 185.935 130.629 163.205 119.068C137.857 161.674 104.792 195.753 72.7158 212.593C64.2808 217.021 54.1668 210.648 54.6988 201.136C56.9908 160.168 75.9678 105.089 124.942 68.5749C158.648 43.4439 213.021 32.7779 244.718 5.25391Z" fill="#4E5660"/>
<path d="M169.963 44.4648C153.557 51.5578 137.755 59.0208 124.941 68.5738C75.9669 105.088 56.9899 160.167 54.6979 201.135C54.1659 210.646 64.2799 217.02 72.7149 212.592C104.791 195.752 137.857 161.673 163.204 119.067C169.401 122.219 177.216 124.705 185.817 126.661C168.112 107.097 162.425 67.3938 169.963 44.4648Z" fill="#3A4351"/>
<path d="M463.85 77.0241L469.094 89.5381C471.973 96.4091 481.709 96.4091 484.589 89.5381L489.833 77.0241C490.685 74.9911 492.301 73.3751 494.334 72.5231L506.848 67.2791C513.719 64.4001 513.719 54.6641 506.848 51.7841L494.334 46.5401C492.301 45.6881 490.685 44.0721 489.833 42.0391L484.589 29.5251C481.71 22.6531 471.974 22.6531 469.094 29.5251L463.85 42.0401C462.998 44.0731 461.382 45.6891 459.349 46.5411L446.835 51.7851C439.964 54.6641 439.964 64.4001 446.835 67.2801L459.349 72.5241C461.381 73.3751 462.998 74.9911 463.85 77.0241Z" fill="#8BD5FD"/>
<path d="M123.971 409.926C106.638 432.541 94.9782 459.734 91.1342 489.383C89.6492 500.837 98.6572 510.966 110.207 510.966H154.619C161.108 471.814 140.776 430.905 123.971 409.926Z" fill="#8DAEE1"/>
<path d="M388.03 409.926C405.363 432.541 417.023 459.734 420.867 489.383C422.352 500.837 413.344 510.966 401.794 510.966H357.382C350.892 471.814 371.224 430.905 388.03 409.926Z" fill="#8DAEE1"/>
</g>
<defs>
<clipPath id="clip0_7_39">
<rect width="512" height="512" fill="white"/>
</clipPath>
</defs>
</svg>
