<svg width="512" height="512" viewBox="0 0 512 512" fill="none" xmlns="http://www.w3.org/2000/svg">
<g clip-path="url(#clip0_6_3187)">
<path d="M66.1744 459.892C90.4655 459.892 110.157 440.2 110.157 415.909C110.157 391.618 90.4655 371.926 66.1744 371.926C41.8833 371.926 22.1914 391.618 22.1914 415.909C22.1914 440.2 41.8833 459.892 66.1744 459.892Z" fill="#B9E6FF"/>
<path d="M69.749 416.439C108.27 416.439 139.498 385.212 139.498 346.69C139.498 308.169 108.27 276.941 69.749 276.941C31.2277 276.941 0 308.169 0 346.69C0 385.212 31.2277 416.439 69.749 416.439Z" fill="#B9E6FF"/>
<path d="M56.842 174.227C88.235 174.227 113.684 148.778 113.684 117.385C113.684 85.992 88.235 60.543 56.842 60.543C25.449 60.543 0 85.992 0 117.385C0 148.778 25.449 174.227 56.842 174.227Z" fill="#B9E6FF"/>
<path d="M456.172 379.636C487.005 379.636 512 354.641 512 323.808C512 292.976 487.005 267.98 456.172 267.98C425.339 267.98 400.344 292.976 400.344 323.808C400.344 354.641 425.339 379.636 456.172 379.636Z" fill="#B9E6FF"/>
<path d="M459.316 341.784C464.218 311.352 443.522 282.707 413.09 277.805C382.658 272.903 354.013 293.598 349.111 324.031C344.209 354.463 364.904 383.107 395.337 388.009C425.769 392.912 454.413 372.216 459.316 341.784Z" fill="#B9E6FF"/>
<path d="M239.926 363.279C262.38 363.279 264.502 490.865 331.486 490.865C361.864 490.865 394.398 458.138 394.398 378.645C394.398 277.555 456.171 275.139 456.171 173.842C456.171 112.183 400.714 62.1992 332.305 62.1992C302.472 62.1992 275.107 71.7082 253.727 87.5442C245.561 93.5922 234.289 93.5922 226.124 87.5442C204.744 71.7082 177.379 62.1992 147.546 62.1992C79.1367 62.1992 23.6797 112.184 23.6797 173.842C23.6797 275.14 85.4527 277.556 85.4527 378.645C85.4527 458.138 117.987 490.865 148.365 490.865C215.349 490.865 217.471 363.279 239.926 363.279Z" fill="white"/>
<path d="M239.926 363.279C262.38 363.279 264.502 490.865 331.486 490.865C361.864 490.865 394.398 458.138 394.398 378.645C394.398 277.555 456.171 275.139 456.171 173.842C456.171 112.183 400.714 62.1992 332.305 62.1992C302.472 62.1992 275.107 71.7082 253.727 87.5442C245.561 93.5922 234.289 93.5922 226.124 87.5442C204.744 71.7082 177.379 62.1992 147.546 62.1992C79.1367 62.1992 23.6797 112.184 23.6797 173.842C23.6797 275.14 85.4527 277.556 85.4527 378.645C85.4527 458.138 117.987 490.865 148.365 490.865C215.349 490.865 217.471 363.279 239.926 363.279Z" fill="white"/>
<path d="M132.486 63.0234C71.1816 69.7234 23.6836 116.78 23.6836 173.843C23.6836 275.14 85.4566 277.556 85.4566 378.646C85.4566 458.139 117.991 490.866 148.369 490.866C198.318 490.866 212.2 419.931 225.341 383.847C137.037 350.098 35.5516 156.629 132.486 63.0234Z" fill="#F7F7F7"/>
<path d="M136.212 260.573C157.35 260.573 174.486 246.927 174.486 230.093C174.486 213.26 157.35 199.613 136.212 199.613C115.073 199.613 97.9375 213.26 97.9375 230.093C97.9375 246.927 115.073 260.573 136.212 260.573Z" fill="#EDA1AB"/>
<path d="M343.672 260.573C364.811 260.573 381.946 246.927 381.946 230.093C381.946 213.26 364.811 199.613 343.672 199.613C322.534 199.613 305.398 213.26 305.398 230.093C305.398 246.927 322.534 260.573 343.672 260.573Z" fill="#EDA1AB"/>
<path d="M239.94 197.709C224.756 197.709 211.234 187.506 202.729 200.089C194.102 212.853 213.424 232.646 239.94 232.646C266.456 232.646 285.778 212.853 277.151 200.089C268.646 187.505 255.124 197.709 239.94 197.709Z" fill="#4E5660"/>
<path d="M158.517 206.145C149.875 206.145 141.657 202.403 135.971 195.877C133.249 192.754 133.575 188.017 136.697 185.295C139.819 182.574 144.557 182.9 147.279 186.022C150.117 189.278 154.213 191.145 158.518 191.145C162.823 191.145 166.919 189.278 169.757 186.022C172.478 182.899 177.215 182.574 180.338 185.295C183.461 188.017 183.786 192.754 181.064 195.877C175.377 202.402 167.159 206.145 158.517 206.145Z" fill="#4E5660"/>
<path d="M321.365 206.145C312.723 206.145 304.505 202.403 298.819 195.877C296.097 192.754 296.423 188.017 299.545 185.295C302.667 182.574 307.405 182.9 310.127 186.022C312.965 189.278 317.061 191.145 321.366 191.145C325.671 191.145 329.766 189.278 332.604 186.022C335.324 182.899 340.063 182.574 343.186 185.295C346.308 188.017 346.634 192.754 343.912 195.877C338.225 202.402 330.007 206.145 321.365 206.145Z" fill="#4E5660"/>
<path d="M487.012 436.176C505.956 417.232 505.956 386.518 487.012 367.574C468.068 348.63 437.354 348.63 418.41 367.574C399.466 386.518 399.466 417.232 418.41 436.176C437.354 455.12 468.068 455.12 487.012 436.176Z" fill="#B9E6FF"/>
<path d="M396.976 471.738C427.809 471.738 452.804 446.743 452.804 415.91C452.804 385.077 427.809 360.082 396.976 360.082C366.143 360.082 341.148 385.077 341.148 415.91C341.148 446.743 366.143 471.738 396.976 471.738Z" fill="#B9E6FF"/>
<path d="M450.793 50.3014C445.432 33.7714 429.915 21.8164 411.599 21.8164C388.843 21.8164 370.395 40.2644 370.395 63.0204C370.395 85.6544 388.785 104.431 412.02 104.214C415.111 128.03 435.457 146.429 460.115 146.429C486.91 146.429 508.631 124.708 508.631 97.9134C508.631 67.5594 480.956 44.4294 450.793 50.3014Z" fill="#B9E6FF"/>
<path d="M486.822 138.414C450.718 138.239 437.897 101.632 438.031 83.4935C438.062 79.2395 434.938 75.6755 430.715 75.1635C401.033 71.5615 393.879 39.1565 402.615 22.8125C384.181 26.9145 370.395 43.3535 370.395 63.0225C370.395 85.6565 388.785 104.433 412.02 104.216C415.111 128.032 435.457 146.431 460.115 146.431C469.985 146.431 479.161 143.476 486.822 138.414Z" fill="#8BD5FD"/>
<path d="M83.0573 412.513C111.976 412.513 135.419 389.07 135.419 360.151C135.419 331.232 111.976 307.789 83.0573 307.789C54.1386 307.789 30.6953 331.232 30.6953 360.151C30.6953 389.07 54.1386 412.513 83.0573 412.513Z" fill="#B9E6FF"/>
<path d="M113.507 84.362L107.21 99.389C103.752 107.64 92.0608 107.64 88.6038 99.389L82.3067 84.362C81.2837 81.921 79.3428 79.98 76.9018 78.957L61.8758 72.66C53.6248 69.202 53.6248 57.511 61.8758 54.054L76.9018 47.757C79.3428 46.734 81.2837 44.793 82.3067 42.352L88.6038 27.325C92.0618 19.074 103.753 19.074 107.21 27.325L113.507 42.352C114.53 44.793 116.471 46.734 118.912 47.757L133.939 54.054C142.19 57.512 142.19 69.203 133.939 72.66L118.912 78.957C116.471 79.98 114.53 81.921 113.507 84.362Z" fill="#8DAEE1"/>
<path d="M461.374 288.983L455.077 304.01C451.619 312.261 439.928 312.261 436.471 304.01L430.174 288.983C429.151 286.542 427.21 284.601 424.769 283.578L409.743 277.281C401.492 273.823 401.492 262.133 409.743 258.675L424.769 252.378C427.21 251.355 429.151 249.414 430.174 246.973L436.471 231.946C439.929 223.695 451.619 223.695 455.077 231.946L461.374 246.973C462.397 249.414 464.338 251.355 466.779 252.378L481.805 258.675C490.056 262.133 490.056 273.824 481.805 277.281L466.779 283.578C464.338 284.601 462.397 286.542 461.374 288.983Z" fill="#81DCD9"/>
<path d="M131.615 379.709C93.833 411.889 52.014 383.183 54.765 358.117C55.123 354.853 52.86 351.935 49.67 351.157C30.151 346.395 11.818 315.315 29.028 290.082C11.453 302.746 0 323.376 0 346.693C0 368.215 9.753 387.453 25.074 400.248C22.789 406.241 21.762 412.856 22.359 419.779C24.21 441.229 41.733 458.392 63.217 459.797C88.847 461.474 110.159 441.181 110.159 415.91C110.159 412.38 109.732 408.952 108.946 405.662C119.145 399.848 127.18 390.699 131.615 379.709Z" fill="#8BD5FD"/>
<path d="M441.977 409.29C394.829 426.715 370.1 383.331 379.045 363.039C356.729 370.606 340.742 391.886 341.156 416.853C341.645 446.399 365.581 470.744 395.115 471.705C414.261 472.328 431.33 463.304 441.844 449.126C445.368 449.94 449.033 450.385 452.804 450.385C473.74 450.385 491.579 437.123 498.379 418.542C480.702 428.454 459.334 421.401 451.017 411.611C448.797 408.996 445.194 408.101 441.977 409.29Z" fill="#8BD5FD"/>
</g>
<defs>
<clipPath id="clip0_6_3187">
<rect width="512" height="512" fill="white"/>
</clipPath>
</defs>
</svg>
