<svg width="512" height="512" viewBox="0 0 512 512" fill="none" xmlns="http://www.w3.org/2000/svg">
<path d="M256.002 375.545C280.017 375.545 282.287 511.999 353.926 511.999C386.416 511.999 421.211 476.998 421.211 391.98C421.211 283.864 487.277 281.28 487.277 172.942C487.277 106.998 427.966 53.5391 354.802 53.5391C322.896 53.5391 293.629 63.7091 270.763 80.6451C262.03 87.1141 249.974 87.1141 241.241 80.6451C218.376 63.7091 189.108 53.5391 157.202 53.5391C84.0376 53.5391 24.7266 106.998 24.7266 172.942C24.7266 281.28 90.7926 283.864 90.7926 391.98C90.7926 476.998 125.588 511.999 158.078 511.999C229.717 511.999 231.987 375.545 256.002 375.545Z" fill="white"/>
<path d="M256.002 375.545C280.017 375.545 282.287 511.999 353.926 511.999C386.416 511.999 421.211 476.998 421.211 391.98C421.211 283.864 487.277 281.28 487.277 172.942C487.277 106.998 427.966 53.5391 354.802 53.5391C322.896 53.5391 293.629 63.7091 270.763 80.6451C262.03 87.1141 249.974 87.1141 241.241 80.6451C218.376 63.7091 189.108 53.5391 157.202 53.5391C84.0376 53.5391 24.7266 106.998 24.7266 172.942C24.7266 281.28 90.7926 283.864 90.7926 391.98C90.7926 476.998 125.588 511.999 158.078 511.999C229.717 511.999 231.987 375.545 256.002 375.545Z" fill="white"/>
<path d="M141.092 54.4219C75.5266 61.5869 24.7266 111.915 24.7266 172.943C24.7266 281.281 90.7926 283.865 90.7926 391.981C90.7926 476.999 125.588 512 158.078 512C211.498 512 226.345 436.135 240.4 397.543C145.959 361.449 37.4196 154.534 141.092 54.4219Z" fill="#F7F7F7"/>
<path d="M118.496 76.851C118.496 133.751 177.234 194.341 235.749 224.114C248.468 230.586 263.536 230.586 276.255 224.114C334.771 194.34 393.508 133.751 393.508 76.851C393.51 34.407 359.102 0 316.659 0C292.005 0 270.066 11.611 256.003 29.66C241.94 11.611 220 0 195.347 0C152.903 0 118.496 34.407 118.496 76.851Z" fill="#EDA1AB"/>
<path d="M276.255 224.114C284.505 219.916 292.76 215.105 300.854 209.779C182.871 191.86 163.626 58.1679 195.173 0.00390625C152.81 0.0979062 118.496 34.4649 118.496 76.8499C118.496 133.75 177.234 194.34 235.749 224.113C248.468 230.586 263.536 230.586 276.255 224.114Z" fill="#E58996"/>
<path d="M274.046 101.919V74.6141C274.046 69.7621 270.112 65.8281 265.26 65.8281H246.74C241.888 65.8281 237.954 69.7611 237.954 74.6141V101.919H210.649C205.797 101.919 201.863 105.853 201.863 110.705V129.225C201.863 134.077 205.797 138.011 210.649 138.011H237.954V165.316C237.954 170.168 241.888 174.102 246.74 174.102H265.26C270.112 174.102 274.046 170.169 274.046 165.316V138.011H301.351C306.203 138.011 310.137 134.077 310.137 129.225V110.705C310.137 105.853 306.203 101.919 301.351 101.919H274.046Z" fill="white"/>
<path d="M145.052 347.979C167.662 347.979 185.991 333.383 185.991 315.378C185.991 297.373 167.662 282.777 145.052 282.777C122.442 282.777 104.113 297.373 104.113 315.378C104.113 333.383 122.442 347.979 145.052 347.979Z" fill="#EDA1AB"/>
<path d="M366.955 347.979C389.565 347.979 407.894 333.383 407.894 315.378C407.894 297.373 389.565 282.777 366.955 282.777C344.345 282.777 326.016 297.373 326.016 315.378C326.016 333.383 344.345 347.979 366.955 347.979Z" fill="#EDA1AB"/>
<path d="M256.005 280.739C239.764 280.739 225.299 269.825 216.202 283.284C206.975 296.937 227.642 318.107 256.005 318.107C284.368 318.107 305.033 296.937 295.805 283.284C286.709 269.826 272.246 280.739 256.005 280.739Z" fill="#4E5660"/>
<path d="M168.912 289.24C159.82 289.24 151.174 285.302 145.189 278.436C142.468 275.313 142.793 270.576 145.916 267.854C149.038 265.133 153.776 265.459 156.498 268.581C159.632 272.178 164.157 274.24 168.912 274.24C173.667 274.24 178.192 272.177 181.326 268.581C184.048 265.458 188.785 265.133 191.908 267.854C195.031 270.576 195.355 275.313 192.635 278.436C186.65 285.303 178.004 289.24 168.912 289.24Z" fill="#4E5660"/>
<path d="M343.096 289.24C334.004 289.24 325.358 285.302 319.373 278.436C316.652 275.313 316.977 270.576 320.1 267.854C323.222 265.133 327.959 265.459 330.682 268.581C333.816 272.178 338.341 274.24 343.096 274.24C347.851 274.24 352.376 272.177 355.51 268.581C358.233 265.458 362.969 265.133 366.092 267.854C369.215 270.576 369.539 275.313 366.819 278.436C360.834 285.303 352.188 289.24 343.096 289.24Z" fill="#4E5660"/>
</svg>
