<svg width="512" height="512" viewBox="0 0 512 512" fill="none" xmlns="http://www.w3.org/2000/svg">
<g clip-path="url(#clip0_6_3221)">
<path d="M255.997 389.347C277.583 389.347 279.623 511.999 344.016 511.999C373.22 511.999 404.495 480.538 404.495 404.119C404.495 306.938 463.879 304.616 463.879 207.236C463.879 147.962 410.567 99.9102 344.803 99.9102C316.124 99.9102 289.817 109.051 269.264 124.275C261.414 130.089 250.578 130.089 242.728 124.275C222.175 109.052 195.868 99.9102 167.189 99.9102C101.425 99.9102 48.1133 147.962 48.1133 207.236C48.1133 304.616 107.497 306.939 107.497 404.119C107.497 480.537 138.773 511.999 167.976 511.999C232.371 511.999 234.411 389.347 255.997 389.347Z" fill="white"/>
<path d="M182.688 100.818C177.616 100.224 172.445 99.9102 167.193 99.9102C101.429 99.9102 48.1172 147.961 48.1172 207.236C48.1172 304.616 107.501 306.939 107.501 404.119C107.501 480.538 138.777 511.999 167.98 511.999C218.208 511.999 230.498 437.378 243.719 404.545C120.527 323.233 156.274 174.568 182.688 100.818Z" fill="#F7F7F7"/>
<path d="M193.037 279.847C193.07 263.663 176.621 250.51 156.298 250.47C135.975 250.429 119.474 263.516 119.441 279.7C119.409 295.884 135.858 309.037 156.181 309.078C176.504 309.118 193.005 296.031 193.037 279.847Z" fill="#EDA1AB"/>
<path d="M392.459 280.281C392.492 264.097 376.043 250.944 355.72 250.903C335.397 250.862 318.896 263.949 318.863 280.133C318.831 296.318 335.28 309.47 355.603 309.511C375.926 309.552 392.427 296.465 392.459 280.281Z" fill="#EDA1AB"/>
<path d="M334.344 259.466C334.339 259.466 334.335 259.466 334.329 259.466C330.187 259.458 326.836 256.094 326.844 251.951L326.872 236.997C326.88 232.86 330.236 229.512 334.372 229.512H334.387C338.529 229.52 341.88 232.884 341.872 237.027L341.844 251.981C341.836 256.117 338.479 259.466 334.344 259.466Z" fill="#4E5660"/>
<path d="M260.915 293.774C259.252 293.774 257.556 293.547 255.863 293.08L241.698 289.161C237.706 288.057 235.365 283.925 236.469 279.932C237.574 275.939 241.708 273.596 245.698 274.703L259.862 278.622C262.032 279.221 263.14 277.895 263.609 277.051C264.079 276.206 264.618 274.563 262.962 273.039C259.548 269.897 257.595 265.435 257.606 260.795C257.616 256.155 259.588 251.701 263.016 248.575C264.679 247.058 264.147 245.412 263.682 244.565C263.215 243.719 262.107 242.388 259.941 242.978L245.76 246.835C241.765 247.92 237.642 245.564 236.554 241.565C235.467 237.568 237.826 233.447 241.823 232.36L256.004 228.504C264.312 226.246 272.681 229.796 276.828 237.342C280.975 244.889 279.486 253.857 273.124 259.658C272.697 260.047 272.606 260.509 272.606 260.828C272.605 261.146 272.694 261.609 273.119 262C279.455 267.83 280.904 276.805 276.724 284.332C273.397 290.325 267.406 293.774 260.915 293.774Z" fill="#4E5660"/>
<path d="M195.303 258.095C195.297 258.095 195.292 258.095 195.286 258.095C191.144 258.086 187.793 254.721 187.802 250.578C187.808 247.9 186.771 245.381 184.881 243.483C182.992 241.586 180.477 240.538 177.799 240.532C177.792 240.532 177.784 240.532 177.777 240.532C172.259 240.532 167.765 245.014 167.753 250.534C167.744 254.671 164.387 258.017 160.254 258.017C160.248 258.017 160.243 258.017 160.237 258.017C156.095 258.008 152.744 254.642 152.754 250.5C152.785 236.721 164.005 225.531 177.777 225.531H177.833C184.517 225.546 190.795 228.162 195.512 232.899C200.228 237.635 202.818 243.925 202.803 250.61C202.793 254.748 199.437 258.095 195.303 258.095Z" fill="#4E5660"/>
<path d="M255.999 183.589C359.94 183.589 419.866 192.657 463.881 207.238C463.881 136.452 451.209 71.9485 432.806 29.4415C426.205 14.1935 406.484 10.0175 394.223 21.2315C365.029 47.9325 328.188 93.0685 328.188 99.9115C322.956 76.3095 299.874 36.8275 274.07 8.0655C264.422 -2.6885 247.575 -2.6885 237.928 8.0655C212.123 36.8285 189.041 76.3105 183.81 99.9115C183.81 93.0685 146.969 47.9325 117.775 21.2315C105.514 10.0175 85.7932 14.1935 79.1922 29.4415C60.7882 71.9495 48.1172 136.452 48.1172 207.238C92.1322 192.657 152.058 183.589 255.999 183.589Z" fill="#B9E6FF"/>
<path d="M141.86 45.393C133.848 36.747 125.542 28.335 117.774 21.23C105.513 10.016 85.7922 14.192 79.1912 29.44C60.7882 71.948 48.1172 136.451 48.1172 207.236C77.7432 197.422 114.58 190.105 167.194 186.37C140.016 167.048 130.004 109.833 141.86 45.393Z" fill="#8BD5FD"/>
<path d="M462.701 169.977C418.794 155.624 359.016 146.715 256 146.715C152.984 146.715 93.2062 155.623 49.2992 169.977C48.5292 182.138 48.1172 194.584 48.1172 207.236C92.1332 192.655 152.059 183.587 256 183.587C359.941 183.587 419.867 192.655 463.882 207.236C463.882 194.584 463.471 182.138 462.701 169.977Z" fill="#81DCD9"/>
<path d="M48.1172 207.238C77.7442 197.424 114.58 190.107 167.194 186.372C157.25 179.301 149.615 167.141 144.497 151.426C104.302 155.431 74.2382 161.826 49.2992 169.978C48.5282 182.14 48.1172 194.586 48.1172 207.238Z" fill="#6DC8DD"/>
<path d="M256 112.976C269.155 112.976 279.82 99.2509 279.82 82.3201C279.82 65.3892 269.155 51.6641 256 51.6641C242.844 51.6641 232.18 65.3892 232.18 82.3201C232.18 99.2509 242.844 112.976 256 112.976Z" fill="#8DAEE1"/>
<path d="M251.364 52.25C240.428 55.027 232.18 67.432 232.18 82.321C232.18 99.252 242.844 112.977 256 112.977C264.872 112.977 272.605 106.73 276.704 97.473C249.103 102.754 242.091 67.144 251.364 52.25Z" fill="#6A95D6"/>
<path d="M443.32 124.296C456.475 124.296 467.14 110.571 467.14 93.6404C467.14 76.7095 456.475 62.9844 443.32 62.9844C430.165 62.9844 419.5 76.7095 419.5 93.6404C419.5 110.571 430.165 124.296 443.32 124.296Z" fill="#8DAEE1"/>
<path d="M438.684 63.5703C427.748 66.3473 419.5 78.7523 419.5 93.6413C419.5 110.572 430.165 124.297 443.32 124.297C452.192 124.297 459.925 118.05 464.024 108.793C436.423 114.074 429.41 78.4643 438.684 63.5703Z" fill="#6A95D6"/>
<path d="M68.6755 124.296C81.8309 124.296 92.4955 110.571 92.4955 93.6404C92.4955 76.7095 81.8309 62.9844 68.6755 62.9844C55.52 62.9844 44.8555 76.7095 44.8555 93.6404C44.8555 110.571 55.52 124.296 68.6755 124.296Z" fill="#8DAEE1"/>
<path d="M64.0395 63.5703C53.1035 66.3473 44.8555 78.7523 44.8555 93.6413C44.8555 110.572 55.5205 124.297 68.6755 124.297C77.5475 124.297 85.2805 118.05 89.3795 108.793C61.7795 114.074 54.7665 78.4643 64.0395 63.5703Z" fill="#6A95D6"/>
</g>
<defs>
<clipPath id="clip0_6_3221">
<rect width="512" height="512" fill="white"/>
</clipPath>
</defs>
</svg>
