<svg width="512" height="512" viewBox="0 0 512 512" fill="none" xmlns="http://www.w3.org/2000/svg">
<path d="M400.927 505.479H52.388C23.455 505.479 0 482.024 0 453.091V104.553C0 75.6191 23.455 52.1641 52.388 52.1641H400.926C429.859 52.1641 453.314 75.6191 453.314 104.552V453.09C453.315 482.024 429.86 505.479 400.927 505.479Z" fill="#8DAEE1"/>
<path d="M0 104.553V453.091C0 482.024 23.455 505.479 52.388 505.479H272.728C138.508 428.859 126.628 206.039 125.73 52.1641H52.388C23.455 52.1641 0 75.6191 0 104.553Z" fill="#6A95D6"/>
<path d="M388.961 465.306H64.3538C50.9988 465.306 40.1729 454.48 40.1729 441.125V116.517C40.1729 103.162 50.9988 92.3359 64.3538 92.3359H388.962C402.317 92.3359 413.143 103.162 413.143 116.517V441.125C413.142 454.48 402.316 465.306 388.961 465.306Z" fill="#B9E6FF"/>
<path d="M64.3538 92.3359C50.9988 92.3359 40.1729 103.162 40.1729 116.517V441.125C40.1729 454.48 50.9988 465.306 64.3538 465.306H223.25C143.99 377.371 128.998 219.548 126.256 92.3359H64.3538Z" fill="#8BD5FD"/>
<path d="M40.1719 441.128C40.1719 454.483 50.9979 465.309 64.3529 465.309H144.452V182.523L40.1719 286.803V441.128Z" fill="#6DC8DD"/>
<path d="M236.561 92.3359H64.3538C50.9988 92.3359 40.1729 103.162 40.1729 116.517V288.724L236.561 92.3359Z" fill="#EDA1AB"/>
<path d="M126.256 92.3359H64.3538C50.9988 92.3359 40.1729 103.162 40.1729 116.517V288.724L131.889 197.008C128.54 161.22 126.976 125.724 126.256 92.3359Z" fill="#E58996"/>
<path d="M388.961 92.3359H241.428L142.351 186.71V376.901H413.143V116.517C413.142 103.162 402.316 92.3359 388.961 92.3359Z" fill="#81DCD9"/>
<path d="M413.142 355.886H167.628V199.894L275.186 92.3359H211.427L40.1719 263.59V327.35L122.543 244.979V465.306H167.628V400.972H413.142V355.886Z" fill="white"/>
<path d="M40.1719 263.59V327.35L122.542 244.98V465.306H167.628V400.972H181.044C149.371 335.121 135.767 252.779 129.954 173.809L40.1719 263.59Z" fill="white"/>
<path d="M357.782 221.239C373.796 221.239 375.309 312.229 423.079 312.229C444.744 312.229 467.946 288.889 467.946 232.198C467.946 160.104 512 158.381 512 86.1395C512 42.1665 472.45 6.51953 423.663 6.51953C402.387 6.51953 382.871 13.3015 367.624 24.5945C361.8 28.9075 353.762 28.9075 347.938 24.5945C332.692 13.3005 313.176 6.51953 291.9 6.51953C243.113 6.51953 203.563 42.1665 203.563 86.1395C203.563 158.382 247.617 160.105 247.617 232.198C247.617 288.889 270.819 312.229 292.484 312.229C340.255 312.229 341.768 221.239 357.782 221.239Z" fill="white"/>
<path d="M281.157 7.10547C237.438 11.8835 203.563 45.4435 203.563 86.1375C203.563 158.379 247.617 160.102 247.617 232.195C247.617 288.886 270.819 312.226 292.484 312.226C328.105 312.226 338.006 261.638 347.378 235.904C284.403 211.837 212.028 73.8625 281.157 7.10547Z" fill="#F6F6F6"/>
<path d="M279.524 157.478C295.472 157.478 308.4 147.183 308.4 134.483C308.4 121.783 295.472 111.488 279.524 111.488C263.577 111.488 250.648 121.783 250.648 134.483C250.648 147.183 263.577 157.478 279.524 157.478Z" fill="#EDA1AB"/>
<path d="M436.04 157.478C451.988 157.478 464.916 147.183 464.916 134.483C464.916 121.783 451.988 111.488 436.04 111.488C420.092 111.488 407.164 121.783 407.164 134.483C407.164 147.183 420.092 157.478 436.04 157.478Z" fill="#EDA1AB"/>
<path d="M296.354 119.847C292.211 119.847 288.854 116.489 288.854 112.347V100.543C288.854 96.401 292.211 93.043 296.354 93.043C300.497 93.043 303.854 96.401 303.854 100.543V112.347C303.854 116.489 300.496 119.847 296.354 119.847Z" fill="#4E5660"/>
<path d="M419.212 119.847C415.069 119.847 411.712 116.489 411.712 112.347V100.543C411.712 96.401 415.069 93.043 419.212 93.043C423.355 93.043 426.712 96.401 426.712 100.543V112.347C426.712 116.489 423.354 119.847 419.212 119.847Z" fill="#4E5660"/>
<path d="M357.783 126.875C349.409 126.875 341.444 123.249 335.933 116.925C333.211 113.803 333.535 109.065 336.658 106.343C339.78 103.621 344.52 103.946 347.24 107.069C349.902 110.123 353.745 111.875 357.783 111.875C361.82 111.875 365.663 110.124 368.325 107.069C371.046 103.945 375.783 103.621 378.906 106.343C382.029 109.065 382.353 113.803 379.632 116.925C374.121 123.249 366.157 126.875 357.783 126.875Z" fill="#4E5660"/>
</svg>
